<?xml version="1.0" encoding="UTF-8" standalone="no"?>
<!-- Created with Inkscape (http://www.inkscape.org/) -->
<svg
   xmlns:svg="http://www.w3.org/2000/svg"
   xmlns="http://www.w3.org/2000/svg"
   version="1.0"
   width="800"
   height="800"
   id="svg2">
  <defs
     id="defs4" />
  <g
     id="layer1">
    <g
       id="g4091">
      <g
         transform="translate(100,100)"
         id="g3635">
        <g
           id="g3434">
          <path
             d="M 248.90172,43.111591 L 351.09828,556.88841"
             id="path3418"
             style="fill:none;fill-rule:evenodd;stroke:#000000;stroke-width:2;stroke-linecap:round;stroke-linejoin:round;stroke-miterlimit:4;stroke-dasharray:none;stroke-opacity:1" />
          <path
             d="M 154.48441,82.220522 L 445.51559,517.77948"
             id="path3420"
             style="fill:none;fill-rule:evenodd;stroke:#000000;stroke-width:2;stroke-linecap:round;stroke-linejoin:round;stroke-miterlimit:4;stroke-dasharray:none;stroke-opacity:1" />
          <path
             d="M 82.220526,154.4844 L 517.77947,445.5156"
             id="path3422"
             style="fill:none;fill-rule:evenodd;stroke:#000000;stroke-width:2;stroke-linecap:round;stroke-linejoin:round;stroke-miterlimit:4;stroke-dasharray:none;stroke-opacity:1" />
          <path
             d="M 43.111592,248.90171 L 556.8884,351.09829"
             id="path3424"
             style="fill:none;fill-rule:evenodd;stroke:#000000;stroke-width:2;stroke-linecap:round;stroke-linejoin:round;stroke-miterlimit:4;stroke-dasharray:none;stroke-opacity:1" />
          <path
             d="M 43.111588,351.09827 L 556.8884,248.90173"
             id="path3426"
             style="fill:none;fill-rule:evenodd;stroke:#000000;stroke-width:2;stroke-linecap:round;stroke-linejoin:round;stroke-miterlimit:4;stroke-dasharray:none;stroke-opacity:1" />
          <path
             d="M 82.220515,445.51558 L 517.77947,154.48442"
             id="path3428"
             style="fill:none;fill-rule:evenodd;stroke:#000000;stroke-width:2;stroke-linecap:round;stroke-linejoin:round;stroke-miterlimit:4;stroke-dasharray:none;stroke-opacity:1" />
          <path
             d="M 154.48439,517.77946 L 445.51559,82.220536"
             id="path3430"
             style="fill:none;fill-rule:evenodd;stroke:#000000;stroke-width:2;stroke-linecap:round;stroke-linejoin:round;stroke-miterlimit:4;stroke-dasharray:none;stroke-opacity:1" />
          <path
             d="M 248.9017,556.88839 L 351.09828,43.111601"
             id="path3432"
             style="fill:none;fill-rule:evenodd;stroke:#000000;stroke-width:2;stroke-linecap:round;stroke-linejoin:round;stroke-miterlimit:4;stroke-dasharray:none;stroke-opacity:1" />
        </g>
        <g
           id="g3631">
          <path
             d="M 195.25,47.125 L 231.6875,196 L 265.96875,221.125 L 266.34375,218.71875 L 195.25,47.125 z M 404.75,47.125 L 326.96875,175.3125 L 333.65625,218.71875 L 404.75,47.125 z M 47.125,195.25 L 175.3125,273.03125 L 218.71875,266.34375 L 47.125,195.25 z M 552.875,195.25 L 404,231.6875 L 378.875,265.96875 L 381.28125,266.34375 L 552.875,195.25 z M 424.6875,326.96875 L 381.28125,333.65625 L 552.875,404.75 L 424.6875,326.96875 z M 218.75,333.65625 L 47.125,404.75 L 195.96875,368.3125 L 221.125,334.03125 L 218.75,333.65625 z M 334.03125,378.875 L 333.65625,381.28125 L 404.75,552.875 L 368.3125,404 L 334.03125,378.875 z M 266.34375,381.28125 L 195.25,552.875 L 273.03125,424.6875 L 266.34375,381.28125 z"
             id="path3398"
             style="fill:#b3b3b3;fill-rule:evenodd;stroke:#000000;stroke-width:3;stroke-linecap:round;stroke-linejoin:round;stroke-miterlimit:4;stroke-dasharray:none;stroke-opacity:1" />
          <path
             d="M 195.25,47.125 L 266.34375,218.71875 L 273.03125,175.3125 L 195.25,47.125 z M 404.75,47.125 L 333.65625,218.71875 L 334.03125,221.125 L 368.3125,196 L 404.75,47.125 z M 47.125,195.25 L 218.71875,266.34375 L 221.125,265.96875 L 196,231.6875 L 47.125,195.25 z M 552.875,195.25 L 381.28125,266.34375 L 424.6875,273.03125 L 552.875,195.25 z M 175.3125,326.96875 L 47.125,404.75 L 218.75,333.65625 L 175.3125,326.96875 z M 381.28125,333.65625 L 378.875,334.03125 L 404,368.3125 L 552.875,404.75 L 381.28125,333.65625 z M 265.96875,378.875 L 231.6875,404 L 195.25,552.875 L 266.34375,381.28125 L 265.96875,378.875 z M 333.65625,381.28125 L 326.96875,424.6875 L 404.75,552.875 L 333.65625,381.28125 z"
             id="path3408"
             style="fill:#ffffff;fill-rule:evenodd;stroke:#000000;stroke-width:3;stroke-linecap:round;stroke-linejoin:round;stroke-miterlimit:4;stroke-dasharray:none;stroke-opacity:1" />
        </g>
        <g
           id="g3627">
          <path
             d="M 97.8125,97.8125 L 221.15625,265.96875 L 260,260 L 97.8125,97.8125 z M 502.1875,97.8125 L 334.03125,221.15625 L 340,260 L 502.1875,97.8125 z M 378.84375,334.03125 L 340,340 L 502.1875,502.1875 L 378.84375,334.03125 z M 260,340 L 97.8125,502.1875 L 265.96875,378.84375 L 260,340 z"
             id="path3258"
             style="fill:#666666;fill-rule:evenodd;stroke:#000000;stroke-width:3.00000024;stroke-linecap:round;stroke-linejoin:round;stroke-miterlimit:4;stroke-dasharray:none;stroke-opacity:1" />
          <path
             d="M 97.8125,97.8125 L 260,260 L 265.96875,221.15625 L 97.8125,97.8125 z M 502.1875,97.8125 L 340,260 L 378.84375,265.96875 L 502.1875,97.8125 z M 221.125,334.03125 L 97.8125,502.1875 L 260,340 L 221.125,334.03125 z M 340,340 L 334.03125,378.84375 L 502.1875,502.1875 L 340,340 z"
             id="path3268"
             style="fill:#ececec;fill-rule:evenodd;stroke:#000000;stroke-width:3.00000024;stroke-linecap:round;stroke-linejoin:round;stroke-miterlimit:4;stroke-dasharray:none;stroke-opacity:1" />
        </g>
        <g
           id="g3623">
          <path
             d="M 300,0 L 260,260 L 300,300 L 300,0 z M 300,300 L 600,300 L 340,260 L 300,300 z M 300,300 L 300,600 L 340,340 L 300,300 z M 300,300 L 0,300 L 260,340 L 300,300 z"
             id="path3171"
             style="fill:#1a1a1a;fill-rule:evenodd;stroke:#000000;stroke-width:3;stroke-linecap:round;stroke-linejoin:round;stroke-miterlimit:4;stroke-dasharray:none;stroke-opacity:1" />
          <path
             d="M 300,0 L 300,300 L 340,260 L 300,0 z M 300,300 L 340,340 L 600,300 L 300,300 z M 300,300 L 260,340 L 300,600 L 300,300 z M 300,300 L 260,260 L 0,300 L 300,300 z"
             id="path3179"
             style="fill:#b3b3b3;fill-rule:evenodd;stroke:#000000;stroke-width:3;stroke-linecap:round;stroke-linejoin:round;stroke-miterlimit:4;stroke-dasharray:none;stroke-opacity:1" />
        </g>
      </g>
      <g
         id="g4053">
        <g
           id="g3955">
          <path
             d="M 595.7663,184.82916 L 595.7663,182.46588 L 599.49677,182.46588 L 599.49677,158.03229 L 595.7663,158.03229 L 595.7663,155.66901 L 604.88739,155.66901 L 622.48505,176.31354 L 622.48505,158.03229 L 618.77411,158.03229 L 618.77411,155.66901 L 628.96942,155.66901 L 628.96942,158.03229 L 625.23895,158.03229 L 625.23895,184.82916 L 620.12177,184.82916 L 602.25067,163.75494 L 602.25067,182.46588 L 605.96161,182.46588 L 605.96161,184.82916 L 595.7663,184.82916 z M 647.97333,183.03229 C 650.46029,183.03229 652.30924,181.98411 653.5202,179.88776 C 654.73112,177.79141 655.33658,174.58829 655.33661,170.27838 C 655.33658,165.95548 654.73112,162.74585 653.5202,160.64948 C 652.30924,158.55315 650.46029,157.50497 647.97333,157.50494 C 645.49935,157.50497 643.65365,158.56291 642.43622,160.67877 C 641.21876,162.79468 640.61004,165.99455 640.61005,170.27838 C 640.61004,174.54922 641.21876,177.74258 642.43622,179.85846 C 643.65365,181.97435 645.49935,183.03229 647.97333,183.03229 L 647.97333,183.03229 z M 647.97333,185.39557 C 643.06446,185.39557 639.21681,184.05442 636.43036,181.37213 C 633.6439,178.68985 632.25067,174.99193 632.25067,170.27838 C 632.25067,165.56486 633.64715,161.86369 636.44012,159.17487 C 639.23308,156.48609 643.07748,155.14169 647.97333,155.14166 C 652.88216,155.14169 656.72981,156.48284 659.5163,159.1651 C 662.30272,161.84741 663.69595,165.55184 663.69598,170.27838 C 663.69595,174.99193 662.29947,178.68985 659.50653,181.37213 C 656.71354,184.05442 652.86914,185.39557 647.97333,185.39557 L 647.97333,185.39557 z"
             id="text3671"
             style="font-size:40px;font-style:normal;font-variant:normal;font-weight:bold;font-stretch:normal;text-align:start;line-height:125%;writing-mode:lr-tb;text-anchor:start;fill:#000000;fill-opacity:1;stroke:none;stroke-width:1px;stroke-linecap:butt;stroke-linejoin:miter;stroke-opacity:1;font-family:DejaVu Serif;-inkscape-font-specification:DejaVu Serif Bold" />
          <path
             d="M 600.47913,642.88086 L 600.47913,635.9668 L 602.95959,635.9668 C 603.33719,638.1543 604.22912,639.78842 605.63538,640.86914 C 607.04162,641.94987 608.98823,642.49024 611.47522,642.49023 C 613.49343,642.49024 615.02989,642.10612 616.08459,641.33789 C 617.13926,640.56967 617.66661,639.44336 617.66663,637.95898 C 617.66661,636.78712 617.30853,635.87566 616.59241,635.22461 C 615.87624,634.57358 614.39838,633.96811 612.15881,633.4082 L 607.78381,632.33398 C 604.93224,631.60483 602.92704,630.59246 601.76819,629.29688 C 600.60933,628.00132 600.0299,626.15562 600.02991,623.75977 C 600.0299,620.86916 600.99019,618.61982 602.91077,617.01172 C 604.83133,615.40367 607.52339,614.59964 610.98694,614.59961 C 612.69265,614.59964 614.46674,614.74287 616.3092,615.0293 C 618.15163,615.31578 620.06244,615.74547 622.04163,616.31836 L 622.04163,622.76367 L 619.56116,622.76367 C 619.18353,620.75849 618.35671,619.29039 617.08069,618.35938 C 615.80463,617.42841 613.98822,616.96292 611.63147,616.96289 C 609.70437,616.96292 608.2493,617.2982 607.26624,617.96875 C 606.28315,618.63935 605.79162,619.6387 605.79163,620.9668 C 605.79162,622.17776 606.13016,623.09898 606.80725,623.73047 C 607.48432,624.362 609.14448,625.0163 611.78772,625.69336 L 616.16272,626.76758 C 618.87103,627.44468 620.83392,628.49936 622.05139,629.93164 C 623.26881,631.36395 623.87754,633.3366 623.87756,635.84961 C 623.87754,638.79232 622.86191,641.02865 620.83069,642.55859 C 618.79942,644.08854 615.81114,644.85352 611.86584,644.85352 C 609.96479,644.85352 608.07677,644.69075 606.20178,644.36523 C 604.32678,644.03971 602.41923,643.54492 600.47913,642.88086 L 600.47913,642.88086 z M 643.70178,642.49023 C 646.18874,642.49024 648.0377,641.44206 649.24866,639.3457 C 650.45957,637.24936 651.06504,634.04623 651.06506,629.73633 C 651.06504,625.41343 650.45957,622.2038 649.24866,620.10742 C 648.0377,618.01109 646.18874,616.96292 643.70178,616.96289 C 641.22781,616.96292 639.38211,618.02086 638.16467,620.13672 C 636.94721,622.25263 636.33849,625.45249 636.3385,629.73633 C 636.33849,634.00717 636.94721,637.20053 638.16467,639.31641 C 639.38211,641.43229 641.22781,642.49024 643.70178,642.49023 L 643.70178,642.49023 z M 643.70178,644.85352 C 638.79292,644.85352 634.94526,643.51237 632.15881,640.83008 C 629.37235,638.14779 627.97912,634.44988 627.97913,629.73633 C 627.97912,625.02281 629.37561,621.32164 632.16858,618.63281 C 634.96154,615.94404 638.80594,614.59964 643.70178,614.59961 C 648.61061,614.59964 652.45827,615.94078 655.24475,618.62305 C 658.03118,621.30536 659.42441,625.00978 659.42444,629.73633 C 659.42441,634.44988 658.02792,638.14779 655.23499,640.83008 C 652.44199,643.51237 648.59759,644.85352 643.70178,644.85352 L 643.70178,644.85352 z"
             id="text3675"
             style="font-size:40px;font-style:normal;font-variant:normal;font-weight:bold;font-stretch:normal;text-align:start;line-height:125%;writing-mode:lr-tb;text-anchor:start;fill:#000000;fill-opacity:1;stroke:none;stroke-width:1px;stroke-linecap:butt;stroke-linejoin:miter;stroke-opacity:1;font-family:DejaVu Serif;-inkscape-font-specification:DejaVu Serif Bold" />
          <path
             d="M 134.89001,642.88251 L 134.89001,635.96844 L 137.37048,635.96844 C 137.74808,638.15595 138.64001,639.79006 140.04626,640.87079 C 141.45251,641.95152 143.39912,642.49188 145.88611,642.49188 C 147.90432,642.49188 149.44078,642.10777 150.49548,641.33954 C 151.55015,640.57131 152.07749,639.44501 152.07751,637.96063 C 152.07749,636.78876 151.71942,635.87731 151.0033,635.22626 C 150.28713,634.57523 148.80927,633.96976 146.5697,633.40985 L 142.1947,632.33563 C 139.34313,631.60648 137.33793,630.59411 136.17908,629.29852 C 135.02022,628.00297 134.44079,626.15727 134.4408,623.76141 C 134.44079,620.87081 135.40108,618.62147 137.32166,617.01337 C 139.24222,615.40532 141.93428,614.60129 145.39783,614.60126 C 147.10354,614.60129 148.87763,614.74452 150.72009,615.03094 C 152.56252,615.31743 154.47333,615.74712 156.45251,616.32001 L 156.45251,622.76532 L 153.97205,622.76532 C 153.59442,620.76014 152.7676,619.29204 151.49158,618.36102 C 150.21552,617.43006 148.39911,616.96457 146.04236,616.96454 C 144.11526,616.96457 142.66019,617.29985 141.67712,617.9704 C 140.69404,618.641 140.20251,619.64034 140.20251,620.96844 C 140.20251,622.1794 140.54105,623.10063 141.21814,623.73212 C 141.89521,624.36365 143.55537,625.01794 146.19861,625.69501 L 150.57361,626.76923 C 153.28192,627.44633 155.24481,628.50101 156.46228,629.93329 C 157.6797,631.36559 158.28843,633.33825 158.28845,635.85126 C 158.28843,638.79397 157.2728,641.0303 155.24158,642.56024 C 153.21031,644.09019 150.22203,644.85516 146.27673,644.85516 C 144.37568,644.85516 142.48766,644.6924 140.61267,644.36688 C 138.73766,644.04136 136.83011,643.54657 134.89001,642.88251 L 134.89001,642.88251 z M 194.79236,644.28876 L 189.7533,644.28876 L 183.15173,623.05829 L 176.55017,644.28876 L 171.51111,644.28876 L 163.1908,617.49188 L 160.35876,617.49188 L 160.35876,615.1286 L 174.18689,615.1286 L 174.18689,617.49188 L 171.06189,617.49188 L 176.6283,635.40204 L 182.91736,615.1286 L 188.46423,615.1286 L 194.87048,635.73407 L 200.55408,617.49188 L 197.07751,617.49188 L 197.07751,615.1286 L 206.10095,615.1286 L 206.10095,617.49188 L 203.11267,617.49188 L 194.79236,644.28876 z"
             id="text3679"
             style="font-size:40px;font-style:normal;font-variant:normal;font-weight:bold;font-stretch:normal;text-align:start;line-height:125%;writing-mode:lr-tb;text-anchor:start;fill:#000000;fill-opacity:1;stroke:none;stroke-width:1px;stroke-linecap:butt;stroke-linejoin:miter;stroke-opacity:1;font-family:DejaVu Serif;-inkscape-font-specification:DejaVu Serif Bold" />
          <path
             d="M 130.16917,184.84395 L 130.16917,182.48067 L 133.89964,182.48067 L 133.89964,158.04707 L 130.16917,158.04707 L 130.16917,155.68379 L 139.29027,155.68379 L 156.88792,176.32832 L 156.88792,158.04707 L 153.17699,158.04707 L 153.17699,155.68379 L 163.3723,155.68379 L 163.3723,158.04707 L 159.64183,158.04707 L 159.64183,184.84395 L 154.52464,184.84395 L 136.65355,163.76973 L 136.65355,182.48067 L 140.36449,182.48067 L 140.36449,184.84395 L 130.16917,184.84395 z M 199.05589,184.84395 L 194.01683,184.84395 L 187.41527,163.61348 L 180.81371,184.84395 L 175.77464,184.84395 L 167.45433,158.04707 L 164.6223,158.04707 L 164.6223,155.68379 L 178.45042,155.68379 L 178.45042,158.04707 L 175.32542,158.04707 L 180.89183,175.95723 L 187.18089,155.68379 L 192.72777,155.68379 L 199.13402,176.28926 L 204.81761,158.04707 L 201.34105,158.04707 L 201.34105,155.68379 L 210.36449,155.68379 L 210.36449,158.04707 L 207.37621,158.04707 L 199.05589,184.84395 z"
             id="text3683"
             style="font-size:40px;font-style:normal;font-variant:normal;font-weight:bold;font-stretch:normal;text-align:start;line-height:125%;writing-mode:lr-tb;text-anchor:start;fill:#000000;fill-opacity:1;stroke:none;stroke-width:1px;stroke-linecap:butt;stroke-linejoin:miter;stroke-opacity:1;font-family:DejaVu Serif;-inkscape-font-specification:DejaVu Serif Bold" />
        </g>
        <g
           id="g3949">
          <path
             d="M 376.75781,70.41095 L 376.75781,67.102356 L 381.98047,67.102356 L 381.98047,32.895325 L 376.75781,32.895325 L 376.75781,29.586731 L 389.52734,29.586731 L 414.16406,58.489075 L 414.16406,32.895325 L 408.96875,32.895325 L 408.96875,29.586731 L 423.24219,29.586731 L 423.24219,32.895325 L 418.01953,32.895325 L 418.01953,70.41095 L 410.85547,70.41095 L 385.83594,40.907043 L 385.83594,67.102356 L 391.03125,67.102356 L 391.03125,70.41095 L 376.75781,70.41095 z"
             id="text3655"
             style="font-size:56px;font-style:normal;font-variant:normal;font-weight:bold;font-stretch:normal;text-align:start;line-height:125%;writing-mode:lr-tb;text-anchor:start;fill:#000000;fill-opacity:1;stroke:none;stroke-width:1px;stroke-linecap:butt;stroke-linejoin:miter;stroke-opacity:1;font-family:DejaVu Serif;-inkscape-font-specification:DejaVu Serif Bold" />
          <path
             d="M 750.00116,417.86914 C 753.4829,417.86914 756.07144,416.4017 757.76678,413.4668 C 759.46206,410.53191 760.30972,406.04754 760.30975,400.01367 C 760.30972,393.96161 759.46206,389.46813 757.76678,386.5332 C 756.07144,383.59834 753.4829,382.1309 750.00116,382.13086 C 746.5376,382.1309 743.95362,383.61202 742.24921,386.57422 C 740.54476,389.53649 739.69255,394.0163 739.69257,400.01367 C 739.69255,405.99285 740.54476,410.46355 742.24921,413.42578 C 743.95362,416.38802 746.5376,417.86914 750.00116,417.86914 L 750.00116,417.86914 z M 750.00116,421.17773 C 743.12875,421.17773 737.74203,419.30013 733.841,415.54492 C 729.93996,411.78972 727.98944,406.61264 727.98944,400.01367 C 727.98944,393.41474 729.94451,388.23311 733.85468,384.46875 C 737.76482,380.70447 743.14698,378.82231 750.00116,378.82227 C 756.87352,378.82231 762.26024,380.69991 766.16132,384.45508 C 770.06231,388.21032 772.01283,393.39651 772.01288,400.01367 C 772.01283,406.61264 770.05776,411.78972 766.14764,415.54492 C 762.23745,419.30013 756.8553,421.17773 750.00116,421.17773 L 750.00116,421.17773 z"
             id="text3659"
             style="font-size:56px;font-style:normal;font-variant:normal;font-weight:bold;font-stretch:normal;text-align:start;line-height:125%;writing-mode:lr-tb;text-anchor:start;fill:#000000;fill-opacity:1;stroke:none;stroke-width:1px;stroke-linecap:butt;stroke-linejoin:miter;stroke-opacity:1;font-family:DejaVu Serif;-inkscape-font-specification:DejaVu Serif Bold" />
          <path
             d="M 383.93555,768.41687 L 383.93555,758.73718 L 387.4082,758.73718 C 387.93684,761.79969 389.18554,764.08745 391.1543,765.60046 C 393.12303,767.11349 395.84829,767.87 399.33008,767.87 C 402.15558,767.87 404.30662,767.33224 405.7832,766.25671 C 407.25974,765.1812 407.99802,763.60438 407.99805,761.52625 C 407.99802,759.88563 407.49672,758.60959 406.49414,757.69812 C 405.49151,756.78668 403.4225,755.93902 400.28711,755.15515 L 394.16211,753.65125 C 390.16991,752.63043 387.36262,751.21311 385.74023,749.39929 C 384.11783,747.58551 383.30664,745.00153 383.30664,741.64734 C 383.30664,737.6005 384.65104,734.45141 387.33984,732.20007 C 390.02864,729.94881 393.79751,728.82316 398.64648,728.82312 C 401.03448,728.82316 403.51821,729.02368 406.09766,729.42468 C 408.67705,729.82576 411.35218,730.42733 414.12305,731.22937 L 414.12305,740.25281 L 410.65039,740.25281 C 410.12171,737.44555 408.96416,735.39021 407.17773,734.08679 C 405.39125,732.78344 402.84828,732.13175 399.54883,732.13171 C 396.85089,732.13175 394.81379,732.60115 393.4375,733.53992 C 392.06119,734.47875 391.37304,735.87784 391.37305,737.73718 C 391.37304,739.43253 391.84699,740.72224 392.79492,741.60632 C 393.74282,742.49047 396.06704,743.40648 399.76758,744.35437 L 405.89258,745.85828 C 409.68421,746.80622 412.43226,748.28278 414.13672,750.28796 C 415.84111,752.29319 416.69332,755.05491 416.69336,758.57312 C 416.69332,762.69292 415.27145,765.82378 412.42773,767.9657 C 409.58395,770.10763 405.40036,771.17859 399.87695,771.17859 C 397.21548,771.17859 394.57225,770.95072 391.94727,770.495 C 389.32226,770.03927 386.65169,769.34656 383.93555,768.41687 L 383.93555,768.41687 z"
             id="text3663"
             style="font-size:56px;font-style:normal;font-variant:normal;font-weight:bold;font-stretch:normal;text-align:start;line-height:125%;writing-mode:lr-tb;text-anchor:start;fill:#000000;fill-opacity:1;stroke:none;stroke-width:1px;stroke-linecap:butt;stroke-linejoin:miter;stroke-opacity:1;font-family:DejaVu Serif;-inkscape-font-specification:DejaVu Serif Bold" />
          <path
             d="M 66.186327,420.41211 L 59.131639,420.41211 L 49.889452,390.68945 L 40.647264,420.41211 L 33.592577,420.41211 L 21.944139,382.89648 L 17.979296,382.89648 L 17.979296,379.58789 L 37.338671,379.58789 L 37.338671,382.89648 L 32.963671,382.89648 L 40.756639,407.9707 L 49.561327,379.58789 L 57.326952,379.58789 L 66.295702,408.43555 L 74.252733,382.89648 L 69.385546,382.89648 L 69.385546,379.58789 L 82.018358,379.58789 L 82.018358,382.89648 L 77.834764,382.89648 L 66.186327,420.41211 z"
             id="text3667"
             style="font-size:56px;font-style:normal;font-variant:normal;font-weight:bold;font-stretch:normal;text-align:start;line-height:125%;writing-mode:lr-tb;text-anchor:start;fill:#000000;fill-opacity:1;stroke:none;stroke-width:1px;stroke-linecap:butt;stroke-linejoin:miter;stroke-opacity:1;font-family:DejaVu Serif;-inkscape-font-specification:DejaVu Serif Bold" />
        </g>
        <g
           id="g3961">
          <path
             d="M 70.921936,534.32635 L 70.921936,532.43573 L 73.906311,532.43573 L 73.906311,512.88885 L 70.921936,512.88885 L 70.921936,510.99823 L 78.218811,510.99823 L 92.296936,527.51385 L 92.296936,512.88885 L 89.328186,512.88885 L 89.328186,510.99823 L 97.484436,510.99823 L 97.484436,512.88885 L 94.500061,512.88885 L 94.500061,534.32635 L 90.406311,534.32635 L 76.109436,517.46698 L 76.109436,532.43573 L 79.078186,532.43573 L 79.078186,534.32635 L 70.921936,534.32635 z M 111.29694,534.32635 L 111.29694,532.43573 L 114.28131,532.43573 L 114.28131,512.88885 L 111.29694,512.88885 L 111.29694,510.99823 L 118.59381,510.99823 L 132.67194,527.51385 L 132.67194,512.88885 L 129.70319,512.88885 L 129.70319,510.99823 L 137.85944,510.99823 L 137.85944,512.88885 L 134.87506,512.88885 L 134.87506,534.32635 L 130.78131,534.32635 L 116.48444,517.46698 L 116.48444,532.43573 L 119.45319,532.43573 L 119.45319,534.32635 L 111.29694,534.32635 z M 153.06256,532.88885 C 155.05213,532.88886 156.53129,532.05032 157.50006,530.37323 C 158.46879,528.69615 158.95317,526.13365 158.95319,522.68573 C 158.95317,519.22741 158.46879,516.65971 157.50006,514.9826 C 156.53129,513.30554 155.05213,512.467 153.06256,512.46698 C 151.08338,512.467 149.60682,513.31336 148.63287,515.00604 C 147.65891,516.69877 147.17193,519.25866 147.17194,522.68573 C 147.17193,526.1024 147.65891,528.65709 148.63287,530.34979 C 149.60682,532.0425 151.08338,532.88886 153.06256,532.88885 L 153.06256,532.88885 z M 153.06256,534.77948 C 149.13547,534.77948 146.05735,533.70656 143.82819,531.56073 C 141.59902,529.4149 140.48443,526.45657 140.48444,522.68573 C 140.48443,518.91491 141.60162,515.95398 143.836,513.80292 C 146.07037,511.6519 149.14588,510.57638 153.06256,510.57635 C 156.98963,510.57638 160.06775,511.64929 162.29694,513.7951 C 164.52608,515.94096 165.64066,518.9045 165.64069,522.68573 C 165.64066,526.45657 164.52347,529.4149 162.28912,531.56073 C 160.05473,533.70656 156.97921,534.77948 153.06256,534.77948 L 153.06256,534.77948 z"
             transform="matrix(0.3826834,-0.9238795,0.9238795,0.3826834,0,0)"
             id="text3701"
             style="font-size:32px;font-style:normal;font-variant:normal;font-weight:bold;font-stretch:normal;text-align:start;line-height:125%;writing-mode:lr-tb;text-anchor:start;fill:#000000;fill-opacity:1;stroke:none;stroke-width:1px;stroke-linecap:butt;stroke-linejoin:miter;stroke-opacity:1;font-family:DejaVu Serif;-inkscape-font-specification:DejaVu Serif Bold" />
          <path
             d="M 516.5737,532.94275 C 518.56327,532.94275 520.04243,532.10421 521.0112,530.42712 C 521.97993,528.75005 522.46431,526.18755 522.46432,522.73962 C 522.46431,519.28131 521.97993,516.7136 521.0112,515.0365 C 520.04243,513.35944 518.56327,512.5209 516.5737,512.52087 C 514.59452,512.5209 513.11796,513.36725 512.14401,515.05994 C 511.17005,516.75266 510.68307,519.31256 510.68307,522.73962 C 510.68307,526.1563 511.17005,528.71098 512.14401,530.40369 C 513.11796,532.0964 514.59452,532.94275 516.5737,532.94275 L 516.5737,532.94275 z M 516.5737,534.83337 C 512.64661,534.83337 509.56848,533.76046 507.33932,531.61462 C 505.11016,529.4688 503.99557,526.51047 503.99557,522.73962 C 503.99557,518.96881 505.11276,516.00787 507.34714,513.85681 C 509.58151,511.70579 512.65702,510.63027 516.5737,510.63025 C 520.50077,510.63027 523.57889,511.70319 525.80807,513.849 C 528.03722,515.99485 529.1518,518.95839 529.15182,522.73962 C 529.1518,526.51047 528.03461,529.4688 525.80026,531.61462 C 523.56587,533.76046 520.49035,534.83337 516.5737,534.83337 L 516.5737,534.83337 z M 543.05807,534.38025 L 543.05807,532.48962 L 546.04245,532.48962 L 546.04245,512.94275 L 543.05807,512.94275 L 543.05807,511.05212 L 550.35495,511.05212 L 564.43307,527.56775 L 564.43307,512.94275 L 561.46432,512.94275 L 561.46432,511.05212 L 569.62057,511.05212 L 569.62057,512.94275 L 566.6362,512.94275 L 566.6362,534.38025 L 562.54245,534.38025 L 548.24557,517.52087 L 548.24557,532.48962 L 551.21432,532.48962 L 551.21432,534.38025 L 543.05807,534.38025 z M 584.8237,532.94275 C 586.81327,532.94275 588.29243,532.10421 589.2612,530.42712 C 590.22993,528.75005 590.71431,526.18755 590.71432,522.73962 C 590.71431,519.28131 590.22993,516.7136 589.2612,515.0365 C 588.29243,513.35944 586.81327,512.5209 584.8237,512.52087 C 582.84452,512.5209 581.36796,513.36725 580.39401,515.05994 C 579.42005,516.75266 578.93307,519.31256 578.93307,522.73962 C 578.93307,526.1563 579.42005,528.71098 580.39401,530.40369 C 581.36796,532.0964 582.84452,532.94275 584.8237,532.94275 L 584.8237,532.94275 z M 584.8237,534.83337 C 580.89661,534.83337 577.81848,533.76046 575.58932,531.61462 C 573.36016,529.4688 572.24557,526.51047 572.24557,522.73962 C 572.24557,518.96881 573.36276,516.00787 575.59714,513.85681 C 577.83151,511.70579 580.90702,510.63027 584.8237,510.63025 C 588.75077,510.63027 591.82889,511.70319 594.05807,513.849 C 596.28722,515.99485 597.4018,518.95839 597.40182,522.73962 C 597.4018,526.51047 596.28461,529.4688 594.05026,531.61462 C 591.81587,533.76046 588.74035,534.83337 584.8237,534.83337 L 584.8237,534.83337 z"
             transform="matrix(0.9238795,-0.3826834,0.3826834,0.9238795,0,0)"
             id="text3705"
             style="font-size:32px;font-style:normal;font-variant:normal;font-weight:bold;font-stretch:normal;text-align:start;line-height:125%;writing-mode:lr-tb;text-anchor:start;fill:#000000;fill-opacity:1;stroke:none;stroke-width:1px;stroke-linecap:butt;stroke-linejoin:miter;stroke-opacity:1;font-family:DejaVu Serif;-inkscape-font-specification:DejaVu Serif Bold" />
          <path
             d="M 822.79932,226.83607 C 824.78888,226.83608 826.26805,225.99754 827.23682,224.32045 C 828.20555,222.64337 828.68992,220.08087 828.68994,216.63295 C 828.68992,213.17463 828.20555,210.60693 827.23682,208.92982 C 826.26805,207.25276 824.78888,206.41422 822.79932,206.4142 C 820.82014,206.41422 819.34358,207.26058 818.36963,208.95326 C 817.39566,210.64599 816.90868,213.20588 816.90869,216.63295 C 816.90868,220.04962 817.39566,222.60431 818.36963,224.29701 C 819.34358,225.98972 820.82014,226.83608 822.79932,226.83607 L 822.79932,226.83607 z M 822.79932,228.7267 C 818.87222,228.7267 815.7941,227.65378 813.56494,225.50795 C 811.33577,223.36212 810.22119,220.40379 810.22119,216.63295 C 810.22119,212.86213 811.33838,209.9012 813.57275,207.75014 C 815.80712,205.59912 818.88264,204.5236 822.79932,204.52357 C 826.72638,204.5236 829.8045,205.59651 832.03369,207.74232 C 834.26283,209.88818 835.37741,212.85172 835.37744,216.63295 C 835.37741,220.40379 834.26023,223.36212 832.02588,225.50795 C 829.79148,227.65378 826.71597,228.7267 822.79932,228.7267 L 822.79932,228.7267 z M 850.34619,227.14857 L 850.34619,221.61732 L 852.33057,221.61732 C 852.63264,223.36733 853.34619,224.67462 854.47119,225.5392 C 855.59618,226.40379 857.15347,226.83608 859.14307,226.83607 C 860.75764,226.83608 861.9868,226.52878 862.83057,225.9142 C 863.6743,225.29962 864.09618,224.39858 864.09619,223.21107 C 864.09618,222.27358 863.80972,221.54441 863.23682,221.02357 C 862.66388,220.50275 861.48159,220.01837 859.68994,219.57045 L 856.18994,218.71107 C 853.90869,218.12775 852.30452,217.31786 851.37744,216.28139 C 850.45036,215.24494 849.98681,213.76838 849.98682,211.8517 C 849.98681,209.53922 850.75504,207.73974 852.2915,206.45326 C 853.82796,205.16683 855.9816,204.5236 858.75244,204.52357 C 860.11701,204.5236 861.53628,204.63818 863.01025,204.86732 C 864.4842,205.09651 866.01284,205.44026 867.59619,205.89857 L 867.59619,211.05482 L 865.61182,211.05482 C 865.30972,209.45068 864.64826,208.2762 863.62744,207.53139 C 862.60659,206.78662 861.15347,206.41422 859.26807,206.4142 C 857.72639,206.41422 856.56233,206.68245 855.77588,207.21889 C 854.98941,207.75537 854.59618,208.55484 854.59619,209.61732 C 854.59618,210.58609 854.86702,211.32307 855.40869,211.82826 C 855.95035,212.33349 857.27847,212.85692 859.39307,213.39857 L 862.89307,214.25795 C 865.05972,214.79963 866.63003,215.64338 867.604,216.7892 C 868.57794,217.93504 869.06492,219.51317 869.06494,221.52357 C 869.06492,223.87775 868.25242,225.66681 866.62744,226.89076 C 865.00242,228.11472 862.6118,228.7267 859.45557,228.7267 C 857.93472,228.7267 856.42431,228.59649 854.92432,228.33607 C 853.42431,228.07566 851.89827,227.67983 850.34619,227.14857 L 850.34619,227.14857 z M 884.92432,226.83607 C 886.91388,226.83608 888.39305,225.99754 889.36182,224.32045 C 890.33055,222.64337 890.81492,220.08087 890.81494,216.63295 C 890.81492,213.17463 890.33055,210.60693 889.36182,208.92982 C 888.39305,207.25276 886.91388,206.41422 884.92432,206.4142 C 882.94514,206.41422 881.46858,207.26058 880.49463,208.95326 C 879.52066,210.64599 879.03368,213.20588 879.03369,216.63295 C 879.03368,220.04962 879.52066,222.60431 880.49463,224.29701 C 881.46858,225.98972 882.94514,226.83608 884.92432,226.83607 L 884.92432,226.83607 z M 884.92432,228.7267 C 880.99722,228.7267 877.9191,227.65378 875.68994,225.50795 C 873.46077,223.36212 872.34619,220.40379 872.34619,216.63295 C 872.34619,212.86213 873.46338,209.9012 875.69775,207.75014 C 877.93212,205.59912 881.00764,204.5236 884.92432,204.52357 C 888.85138,204.5236 891.9295,205.59651 894.15869,207.74232 C 896.38783,209.88818 897.50241,212.85172 897.50244,216.63295 C 897.50241,220.40379 896.38523,223.36212 894.15088,225.50795 C 891.91648,227.65378 888.84097,228.7267 884.92432,228.7267 L 884.92432,228.7267 z"
             transform="matrix(0.9238795,0.3826834,-0.3826834,0.9238795,0,0)"
             id="text3709"
             style="font-size:32px;font-style:normal;font-variant:normal;font-weight:bold;font-stretch:normal;text-align:start;line-height:125%;writing-mode:lr-tb;text-anchor:start;fill:#000000;fill-opacity:1;stroke:none;stroke-width:1px;stroke-linecap:butt;stroke-linejoin:miter;stroke-opacity:1;font-family:DejaVu Serif;-inkscape-font-specification:DejaVu Serif Bold" />
          <path
             d="M 810.52289,-205.01591 L 810.52289,-210.54716 L 812.50726,-210.54716 C 812.80934,-208.79716 813.52288,-207.48987 814.64789,-206.62529 C 815.77288,-205.7607 817.33017,-205.32841 819.31976,-205.32841 C 820.93433,-205.32841 822.1635,-205.6357 823.00726,-206.25029 C 823.851,-206.86487 824.27287,-207.76591 824.27289,-208.95341 C 824.27287,-209.89091 823.98641,-210.62007 823.41351,-211.14091 C 822.84058,-211.66174 821.65829,-212.14611 819.86664,-212.59404 L 816.36664,-213.45341 C 814.08538,-214.03674 812.48122,-214.84663 811.55414,-215.8831 C 810.62705,-216.91955 810.16351,-218.39611 810.16351,-220.31279 C 810.16351,-222.62527 810.93174,-224.42475 812.4682,-225.71123 C 814.00465,-226.99766 816.1583,-227.64089 818.92914,-227.64091 C 820.29371,-227.64089 821.71298,-227.52631 823.18695,-227.29716 C 824.66089,-227.06798 826.18954,-226.72423 827.77289,-226.26591 L 827.77289,-221.10966 L 825.78851,-221.10966 C 825.48641,-222.71381 824.82495,-223.88829 823.80414,-224.6331 C 822.78329,-225.37787 821.33017,-225.75027 819.44476,-225.75029 C 817.90309,-225.75027 816.73903,-225.48204 815.95258,-224.9456 C 815.16611,-224.40912 814.77288,-223.60965 814.77289,-222.54716 C 814.77288,-221.5784 815.04371,-220.84142 815.58539,-220.33623 C 816.12705,-219.831 817.45517,-219.30757 819.56976,-218.76591 L 823.06976,-217.90654 C 825.23641,-217.36486 826.80672,-216.52111 827.7807,-215.37529 C 828.75464,-214.22945 829.24162,-212.65132 829.24164,-210.64091 C 829.24162,-208.28674 828.42912,-206.49768 826.80414,-205.27373 C 825.17912,-204.04977 822.7885,-203.43779 819.63226,-203.43779 C 818.11142,-203.43779 816.601,-203.568 815.10101,-203.82841 C 813.60101,-204.08883 812.07497,-204.48466 810.52289,-205.01591 L 810.52289,-205.01591 z M 844.77289,-205.01591 L 844.77289,-210.54716 L 846.75726,-210.54716 C 847.05934,-208.79716 847.77288,-207.48987 848.89789,-206.62529 C 850.02288,-205.7607 851.58017,-205.32841 853.56976,-205.32841 C 855.18433,-205.32841 856.4135,-205.6357 857.25726,-206.25029 C 858.101,-206.86487 858.52287,-207.76591 858.52289,-208.95341 C 858.52287,-209.89091 858.23641,-210.62007 857.66351,-211.14091 C 857.09058,-211.66174 855.90829,-212.14611 854.11664,-212.59404 L 850.61664,-213.45341 C 848.33538,-214.03674 846.73122,-214.84663 845.80414,-215.8831 C 844.87705,-216.91955 844.41351,-218.39611 844.41351,-220.31279 C 844.41351,-222.62527 845.18174,-224.42475 846.7182,-225.71123 C 848.25465,-226.99766 850.4083,-227.64089 853.17914,-227.64091 C 854.54371,-227.64089 855.96298,-227.52631 857.43695,-227.29716 C 858.91089,-227.06798 860.43954,-226.72423 862.02289,-226.26591 L 862.02289,-221.10966 L 860.03851,-221.10966 C 859.73641,-222.71381 859.07495,-223.88829 858.05414,-224.6331 C 857.03329,-225.37787 855.58017,-225.75027 853.69476,-225.75029 C 852.15309,-225.75027 850.98903,-225.48204 850.20258,-224.9456 C 849.41611,-224.40912 849.02288,-223.60965 849.02289,-222.54716 C 849.02288,-221.5784 849.29371,-220.84142 849.83539,-220.33623 C 850.37705,-219.831 851.70517,-219.30757 853.81976,-218.76591 L 857.31976,-217.90654 C 859.48641,-217.36486 861.05672,-216.52111 862.0307,-215.37529 C 863.00464,-214.22945 863.49162,-212.65132 863.49164,-210.64091 C 863.49162,-208.28674 862.67912,-206.49768 861.05414,-205.27373 C 859.42912,-204.04977 857.0385,-203.43779 853.88226,-203.43779 C 852.36142,-203.43779 850.851,-203.568 849.35101,-203.82841 C 847.85101,-204.08883 846.32497,-204.48466 844.77289,-205.01591 L 844.77289,-205.01591 z M 879.35101,-205.32841 C 881.34058,-205.32841 882.81975,-206.16695 883.78851,-207.84404 C 884.75724,-209.52112 885.24162,-212.08362 885.24164,-215.53154 C 885.24162,-218.98986 884.75724,-221.55756 883.78851,-223.23466 C 882.81975,-224.91173 881.34058,-225.75027 879.35101,-225.75029 C 877.37183,-225.75027 875.89527,-224.90391 874.92133,-223.21123 C 873.94736,-221.5185 873.46038,-218.95861 873.46039,-215.53154 C 873.46038,-212.11487 873.94736,-209.56018 874.92133,-207.86748 C 875.89527,-206.17477 877.37183,-205.32841 879.35101,-205.32841 L 879.35101,-205.32841 z M 879.35101,-203.43779 C 875.42392,-203.43779 872.3458,-204.51071 870.11664,-206.65654 C 867.88747,-208.80237 866.77289,-211.7607 866.77289,-215.53154 C 866.77289,-219.30236 867.89007,-222.26329 870.12445,-224.41435 C 872.35882,-226.56537 875.43434,-227.64089 879.35101,-227.64091 C 883.27808,-227.64089 886.3562,-226.56798 888.58539,-224.42216 C 890.81453,-222.27631 891.92911,-219.31277 891.92914,-215.53154 C 891.92911,-211.7607 890.81193,-208.80237 888.57758,-206.65654 C 886.34318,-204.51071 883.26766,-203.43779 879.35101,-203.43779 L 879.35101,-203.43779 z"
             transform="matrix(0.3826834,0.9238795,-0.9238795,0.3826834,0,0)"
             id="text3713"
             style="font-size:32px;font-style:normal;font-variant:normal;font-weight:bold;font-stretch:normal;text-align:start;line-height:125%;writing-mode:lr-tb;text-anchor:start;fill:#000000;fill-opacity:1;stroke:none;stroke-width:1px;stroke-linecap:butt;stroke-linejoin:miter;stroke-opacity:1;font-family:DejaVu Serif;-inkscape-font-specification:DejaVu Serif Bold" />
          <path
             d="M -595.03589,533.53064 L -595.03589,527.99939 L -593.05151,527.99939 C -592.74944,529.74939 -592.03589,531.05668 -590.91089,531.92126 C -589.7859,532.78585 -588.22861,533.21814 -586.23901,533.21814 C -584.62444,533.21814 -583.39528,532.91085 -582.55151,532.29626 C -581.70778,531.68168 -581.2859,530.78064 -581.28589,529.59314 C -581.2859,528.65565 -581.57236,527.92648 -582.14526,527.40564 C -582.7182,526.88481 -583.90049,526.40044 -585.69214,525.95251 L -589.19214,525.09314 C -591.47339,524.50982 -593.07756,523.69992 -594.00464,522.66345 C -594.93172,521.62701 -595.39527,520.15045 -595.39526,518.23376 C -595.39527,515.92128 -594.62704,514.12181 -593.09058,512.83533 C -591.55412,511.54889 -589.40048,510.90566 -586.62964,510.90564 C -585.26507,510.90566 -583.8458,511.02025 -582.37183,511.24939 C -580.89788,511.47858 -579.36924,511.82233 -577.78589,512.28064 L -577.78589,517.43689 L -579.77026,517.43689 C -580.07236,515.83274 -580.73382,514.65826 -581.75464,513.91345 C -582.77549,513.16868 -584.22861,512.79629 -586.11401,512.79626 C -587.65569,512.79629 -588.81975,513.06452 -589.6062,513.60095 C -590.39267,514.13743 -590.7859,514.93691 -590.78589,515.99939 C -590.7859,516.96816 -590.51506,517.70514 -589.97339,518.21033 C -589.43173,518.71555 -588.10361,519.23899 -585.98901,519.78064 L -582.48901,520.64001 C -580.32236,521.18169 -578.75205,522.02544 -577.77808,523.17126 C -576.80414,524.31711 -576.31716,525.89523 -576.31714,527.90564 C -576.31716,530.25981 -577.12966,532.04887 -578.75464,533.27283 C -580.37966,534.49679 -582.77028,535.10876 -585.92651,535.10876 C -587.44736,535.10876 -588.95777,534.97856 -590.45776,534.71814 C -591.95777,534.45772 -593.48381,534.06189 -595.03589,533.53064 L -595.03589,533.53064 z M -560.78589,533.53064 L -560.78589,527.99939 L -558.80151,527.99939 C -558.49944,529.74939 -557.78589,531.05668 -556.66089,531.92126 C -555.5359,532.78585 -553.97861,533.21814 -551.98901,533.21814 C -550.37444,533.21814 -549.14528,532.91085 -548.30151,532.29626 C -547.45778,531.68168 -547.0359,530.78064 -547.03589,529.59314 C -547.0359,528.65565 -547.32236,527.92648 -547.89526,527.40564 C -548.4682,526.88481 -549.65049,526.40044 -551.44214,525.95251 L -554.94214,525.09314 C -557.22339,524.50982 -558.82756,523.69992 -559.75464,522.66345 C -560.68172,521.62701 -561.14527,520.15045 -561.14526,518.23376 C -561.14527,515.92128 -560.37704,514.12181 -558.84058,512.83533 C -557.30412,511.54889 -555.15048,510.90566 -552.37964,510.90564 C -551.01507,510.90566 -549.5958,511.02025 -548.12183,511.24939 C -546.64788,511.47858 -545.11924,511.82233 -543.53589,512.28064 L -543.53589,517.43689 L -545.52026,517.43689 C -545.82236,515.83274 -546.48382,514.65826 -547.50464,513.91345 C -548.52549,513.16868 -549.97861,512.79629 -551.86401,512.79626 C -553.40569,512.79629 -554.56975,513.06452 -555.3562,513.60095 C -556.14267,514.13743 -556.5359,514.93691 -556.53589,515.99939 C -556.5359,516.96816 -556.26506,517.70514 -555.72339,518.21033 C -555.18173,518.71555 -553.85361,519.23899 -551.73901,519.78064 L -548.23901,520.64001 C -546.07236,521.18169 -544.50205,522.02544 -543.52808,523.17126 C -542.55414,524.31711 -542.06716,525.89523 -542.06714,527.90564 C -542.06716,530.25981 -542.87966,532.04887 -544.50464,533.27283 C -546.12966,534.49679 -548.52028,535.10876 -551.67651,535.10876 C -553.19736,535.10876 -554.70777,534.97856 -556.20776,534.71814 C -557.70777,534.45772 -559.23381,534.06189 -560.78589,533.53064 L -560.78589,533.53064 z M -512.86401,534.65564 L -516.89526,534.65564 L -522.17651,517.67126 L -527.45776,534.65564 L -531.48901,534.65564 L -538.14526,513.21814 L -540.41089,513.21814 L -540.41089,511.32751 L -529.34839,511.32751 L -529.34839,513.21814 L -531.84839,513.21814 L -527.39526,527.54626 L -522.36401,511.32751 L -517.92651,511.32751 L -512.80151,527.81189 L -508.25464,513.21814 L -511.03589,513.21814 L -511.03589,511.32751 L -503.81714,511.32751 L -503.81714,513.21814 L -506.20776,513.21814 L -512.86401,534.65564 z"
             transform="matrix(0.3826834,-0.9238795,0.9238795,0.3826834,0,0)"
             id="text3717"
             style="font-size:32px;font-style:normal;font-variant:normal;font-weight:bold;font-stretch:normal;text-align:start;line-height:125%;writing-mode:lr-tb;text-anchor:start;fill:#000000;fill-opacity:1;stroke:none;stroke-width:1px;stroke-linecap:butt;stroke-linejoin:miter;stroke-opacity:1;font-family:DejaVu Serif;-inkscape-font-specification:DejaVu Serif Bold" />
          <path
             d="M -150.12714,534.41028 L -154.15839,534.41028 L -159.43964,517.4259 L -164.72089,534.41028 L -168.75214,534.41028 L -175.40839,512.97278 L -177.67401,512.97278 L -177.67401,511.08215 L -166.61151,511.08215 L -166.61151,512.97278 L -169.11151,512.97278 L -164.65839,527.3009 L -159.62714,511.08215 L -155.18964,511.08215 L -150.06464,527.56653 L -145.51776,512.97278 L -148.29901,512.97278 L -148.29901,511.08215 L -141.08026,511.08215 L -141.08026,512.97278 L -143.47089,512.97278 L -150.12714,534.41028 z M -127.86151,533.28528 L -127.86151,527.75403 L -125.87714,527.75403 C -125.57506,529.50403 -124.86152,530.81132 -123.73651,531.6759 C -122.61152,532.54049 -121.05423,532.97278 -119.06464,532.97278 C -117.45007,532.97278 -116.2209,532.66549 -115.37714,532.0509 C -114.5334,531.43632 -114.11153,530.53528 -114.11151,529.34778 C -114.11153,528.41028 -114.39799,527.68112 -114.97089,527.16028 C -115.54382,526.63945 -116.72611,526.15508 -118.51776,525.70715 L -122.01776,524.84778 C -124.29902,524.26446 -125.90318,523.45456 -126.83026,522.41809 C -127.75735,521.38165 -128.22089,519.90508 -128.22089,517.9884 C -128.22089,515.67592 -127.45266,513.87644 -125.9162,512.58997 C -124.37975,511.30353 -122.2261,510.6603 -119.45526,510.66028 C -118.09069,510.6603 -116.67142,510.77489 -115.19745,511.00403 C -113.72351,511.23322 -112.19486,511.57697 -110.61151,512.03528 L -110.61151,517.19153 L -112.59589,517.19153 C -112.89799,515.58738 -113.55944,514.4129 -114.58026,513.66809 C -115.60111,512.92332 -117.05423,512.55093 -118.93964,512.5509 C -120.48131,512.55093 -121.64537,512.81915 -122.43182,513.35559 C -123.21829,513.89207 -123.61152,514.69155 -123.61151,515.75403 C -123.61152,516.7228 -123.34068,517.45977 -122.79901,517.96497 C -122.25735,518.47019 -120.92923,518.99363 -118.81464,519.53528 L -115.31464,520.39465 C -113.14799,520.93633 -111.57768,521.78008 -110.6037,522.9259 C -109.62976,524.07175 -109.14278,525.64987 -109.14276,527.66028 C -109.14278,530.01445 -109.95528,531.80351 -111.58026,533.02747 C -113.20528,534.25142 -115.5959,534.8634 -118.75214,534.8634 C -120.27298,534.8634 -121.78339,534.73319 -123.28339,534.47278 C -124.78339,534.21236 -126.30943,533.81653 -127.86151,533.28528 L -127.86151,533.28528 z M -79.939636,534.41028 L -83.970886,534.41028 L -89.252136,517.4259 L -94.533386,534.41028 L -98.564636,534.41028 L -105.22089,512.97278 L -107.48651,512.97278 L -107.48651,511.08215 L -96.424011,511.08215 L -96.424011,512.97278 L -98.924011,512.97278 L -94.470886,527.3009 L -89.439636,511.08215 L -85.002136,511.08215 L -79.877136,527.56653 L -75.330261,512.97278 L -78.111511,512.97278 L -78.111511,511.08215 L -70.892761,511.08215 L -70.892761,512.97278 L -73.283386,512.97278 L -79.939636,534.41028 z"
             transform="matrix(0.9238795,-0.3826834,0.3826834,0.9238795,0,0)"
             id="text3721"
             style="font-size:32px;font-style:normal;font-variant:normal;font-weight:bold;font-stretch:normal;text-align:start;line-height:125%;writing-mode:lr-tb;text-anchor:start;fill:#000000;fill-opacity:1;stroke:none;stroke-width:1px;stroke-linecap:butt;stroke-linejoin:miter;stroke-opacity:1;font-family:DejaVu Serif;-inkscape-font-specification:DejaVu Serif Bold" />
          <path
             d="M 149.90634,228.33632 L 145.87509,228.33632 L 140.59384,211.35194 L 135.31259,228.33632 L 131.28134,228.33632 L 124.62509,206.89882 L 122.35947,206.89882 L 122.35947,205.00819 L 133.42197,205.00819 L 133.42197,206.89882 L 130.92197,206.89882 L 135.37509,221.22694 L 140.40634,205.00819 L 144.84384,205.00819 L 149.96884,221.49257 L 154.51572,206.89882 L 151.73447,206.89882 L 151.73447,205.00819 L 158.95322,205.00819 L 158.95322,206.89882 L 156.56259,206.89882 L 149.90634,228.33632 z M 171.10947,228.33632 L 171.10947,226.44569 L 174.09384,226.44569 L 174.09384,206.89882 L 171.10947,206.89882 L 171.10947,205.00819 L 178.40634,205.00819 L 192.48447,221.52382 L 192.48447,206.89882 L 189.51572,206.89882 L 189.51572,205.00819 L 197.67197,205.00819 L 197.67197,206.89882 L 194.68759,206.89882 L 194.68759,228.33632 L 190.59384,228.33632 L 176.29697,211.47694 L 176.29697,226.44569 L 179.26572,226.44569 L 179.26572,228.33632 L 171.10947,228.33632 z M 226.21884,228.33632 L 222.18759,228.33632 L 216.90634,211.35194 L 211.62509,228.33632 L 207.59384,228.33632 L 200.93759,206.89882 L 198.67197,206.89882 L 198.67197,205.00819 L 209.73447,205.00819 L 209.73447,206.89882 L 207.23447,206.89882 L 211.68759,221.22694 L 216.71884,205.00819 L 221.15634,205.00819 L 226.28134,221.49257 L 230.82822,206.89882 L 228.04697,206.89882 L 228.04697,205.00819 L 235.26572,205.00819 L 235.26572,206.89882 L 232.87509,206.89882 L 226.21884,228.33632 z"
             transform="matrix(0.9238795,0.3826834,-0.3826834,0.9238795,0,0)"
             id="text3725"
             style="font-size:32px;font-style:normal;font-variant:normal;font-weight:bold;font-stretch:normal;text-align:start;line-height:125%;writing-mode:lr-tb;text-anchor:start;fill:#000000;fill-opacity:1;stroke:none;stroke-width:1px;stroke-linecap:butt;stroke-linejoin:miter;stroke-opacity:1;font-family:DejaVu Serif;-inkscape-font-specification:DejaVu Serif Bold" />
          <path
             d="M 130.64632,-204.84834 L 130.64632,-206.73897 L 133.63069,-206.73897 L 133.63069,-226.28584 L 130.64632,-226.28584 L 130.64632,-228.17647 L 137.94319,-228.17647 L 152.02132,-211.66084 L 152.02132,-226.28584 L 149.05257,-226.28584 L 149.05257,-228.17647 L 157.20882,-228.17647 L 157.20882,-226.28584 L 154.22444,-226.28584 L 154.22444,-204.84834 L 150.13069,-204.84834 L 135.83382,-221.70772 L 135.83382,-206.73897 L 138.80257,-206.73897 L 138.80257,-204.84834 L 130.64632,-204.84834 z M 171.02132,-204.84834 L 171.02132,-206.73897 L 174.00569,-206.73897 L 174.00569,-226.28584 L 171.02132,-226.28584 L 171.02132,-228.17647 L 178.31819,-228.17647 L 192.39632,-211.66084 L 192.39632,-226.28584 L 189.42757,-226.28584 L 189.42757,-228.17647 L 197.58382,-228.17647 L 197.58382,-226.28584 L 194.59944,-226.28584 L 194.59944,-204.84834 L 190.50569,-204.84834 L 176.20882,-221.70772 L 176.20882,-206.73897 L 179.17757,-206.73897 L 179.17757,-204.84834 L 171.02132,-204.84834 z M 226.13069,-204.84834 L 222.09944,-204.84834 L 216.81819,-221.83272 L 211.53694,-204.84834 L 207.50569,-204.84834 L 200.84944,-226.28584 L 198.58382,-226.28584 L 198.58382,-228.17647 L 209.64632,-228.17647 L 209.64632,-226.28584 L 207.14632,-226.28584 L 211.59944,-211.95772 L 216.63069,-228.17647 L 221.06819,-228.17647 L 226.19319,-211.69209 L 230.74007,-226.28584 L 227.95882,-226.28584 L 227.95882,-228.17647 L 235.17757,-228.17647 L 235.17757,-226.28584 L 232.78694,-226.28584 L 226.13069,-204.84834 z"
             transform="matrix(0.3826834,0.9238795,-0.9238795,0.3826834,0,0)"
             id="text3729"
             style="font-size:32px;font-style:normal;font-variant:normal;font-weight:bold;font-stretch:normal;text-align:start;line-height:125%;writing-mode:lr-tb;text-anchor:start;fill:#000000;fill-opacity:1;stroke:none;stroke-width:1px;stroke-linecap:butt;stroke-linejoin:miter;stroke-opacity:1;font-family:DejaVu Serif;-inkscape-font-specification:DejaVu Serif Bold" />
        </g>
        <g
           id="g3971">
          <path
             d="M -39.29726,479.22076 L -39.29726,477.8028 L -37.058979,477.8028 L -37.058979,463.14264 L -39.29726,463.14264 L -39.29726,461.72467 L -33.824604,461.72467 L -23.26601,474.11139 L -23.26601,463.14264 L -25.492573,463.14264 L -25.492573,461.72467 L -19.375385,461.72467 L -19.375385,463.14264 L -21.613667,463.14264 L -21.613667,479.22076 L -24.683979,479.22076 L -35.406635,466.57623 L -35.406635,477.8028 L -33.180073,477.8028 L -33.180073,479.22076 L -39.29726,479.22076 z M -17.570698,479.22076 L -17.570698,477.8028 L -10.42226,468.13483 L -15.801167,468.13483 L -15.801167,470.26764 L -17.195698,470.26764 L -17.195698,466.76373 L -5.5941353,466.76373 L -5.5941353,468.15826 L -12.754292,477.82623 L -6.9886665,477.82623 L -6.9886665,475.57623 L -5.5941353,475.57623 L -5.5941353,479.22076 L -17.570698,479.22076 z M 5.6675835,478.14264 C 7.159759,478.14264 8.2691329,477.51373 8.9957085,476.25592 C 9.7222565,474.99811 10.085537,473.07624 10.085552,470.4903 C 10.085537,467.89656 9.7222565,465.97078 8.9957085,464.71295 C 8.2691329,463.45515 7.159759,462.82625 5.6675835,462.82623 C 4.1831995,462.82625 3.0757787,463.46101 2.3453178,464.73053 C 1.6148427,466.00007 1.2496087,467.91999 1.2496147,470.4903 C 1.2496087,473.0528 1.6148427,474.96882 2.3453178,476.23834 C 3.0757787,477.50788 4.1831995,478.14264 5.6675835,478.14264 L 5.6675835,478.14264 z M 5.6675835,479.56061 C 2.7222635,479.56061 0.41367203,478.75592 -1.2581978,477.14655 C -2.9300746,475.53717 -3.7660113,473.31843 -3.7660103,470.4903 C -3.7660113,467.66218 -2.9281215,465.44148 -1.2523384,463.82819 C 0.42343764,462.21492 2.730076,461.40828 5.6675835,461.40826 C 8.6128826,461.40828 10.921474,462.21297 12.593365,463.82233 C 14.265221,465.43172 15.101157,467.65437 15.101177,470.4903 C 15.101157,473.31843 14.263268,475.53717 12.587505,477.14655 C 10.911708,478.75592 8.6050701,479.56061 5.6675835,479.56061 L 5.6675835,479.56061 z"
             transform="matrix(0.1950903,-0.9807853,0.9807853,0.1950903,0,0)"
             id="text3815"
             style="font-size:24px;font-style:normal;font-variant:normal;font-weight:bold;font-stretch:normal;text-align:start;line-height:125%;writing-mode:lr-tb;text-anchor:start;fill:#000000;fill-opacity:1;stroke:none;stroke-width:1px;stroke-linecap:butt;stroke-linejoin:miter;stroke-opacity:1;font-family:DejaVu Serif;-inkscape-font-specification:DejaVu Serif Bold" />
          <path
             d="M 164.54842,564.11603 L 164.54842,562.69806 L 166.7867,562.69806 L 166.7867,548.0379 L 164.54842,548.0379 L 164.54842,546.61993 L 170.02107,546.61993 L 180.57967,559.00665 L 180.57967,548.0379 L 178.3531,548.0379 L 178.3531,546.61993 L 184.47029,546.61993 L 184.47029,548.0379 L 182.23201,548.0379 L 182.23201,564.11603 L 179.1617,564.11603 L 168.43904,551.4715 L 168.43904,562.69806 L 170.6656,562.69806 L 170.6656,564.11603 L 164.54842,564.11603 z M 195.87263,563.0379 C 197.36481,563.0379 198.47418,562.409 199.20076,561.15118 C 199.92731,559.89338 200.29059,557.9715 200.2906,555.38556 C 200.29059,552.79182 199.92731,550.86604 199.20076,549.60822 C 198.47418,548.35042 197.36481,547.72151 195.87263,547.7215 C 194.38825,547.72151 193.28083,548.35628 192.55037,549.62579 C 191.81989,550.89534 191.45466,552.81526 191.45467,555.38556 C 191.45466,557.94807 191.81989,559.86408 192.55037,561.13361 C 193.28083,562.40314 194.38825,563.0379 195.87263,563.0379 L 195.87263,563.0379 z M 195.87263,564.45587 C 192.92731,564.45587 190.61872,563.65118 188.94685,562.04181 C 187.27498,560.43244 186.43904,558.21369 186.43904,555.38556 C 186.43904,552.55745 187.27693,550.33674 188.95271,548.72345 C 190.62849,547.11019 192.93513,546.30355 195.87263,546.30353 C 198.81793,546.30355 201.12653,547.10823 202.79842,548.71759 C 204.47027,550.32698 205.30621,552.54963 205.30623,555.38556 C 205.30621,558.21369 204.46832,560.43244 202.79256,562.04181 C 201.11676,563.65118 198.81012,564.45587 195.87263,564.45587 L 195.87263,564.45587 z M 207.18123,564.11603 L 207.18123,562.69806 L 214.32967,553.03009 L 208.95076,553.03009 L 208.95076,555.1629 L 207.55623,555.1629 L 207.55623,551.659 L 219.15779,551.659 L 219.15779,553.05353 L 211.99763,562.7215 L 217.76326,562.7215 L 217.76326,560.4715 L 219.15779,560.4715 L 219.15779,564.11603 L 207.18123,564.11603 z M 221.03279,564.11603 L 221.03279,562.69806 L 223.27107,562.69806 L 223.27107,548.0379 L 221.03279,548.0379 L 221.03279,546.61993 L 226.50545,546.61993 L 237.06404,559.00665 L 237.06404,548.0379 L 234.83748,548.0379 L 234.83748,546.61993 L 240.95467,546.61993 L 240.95467,548.0379 L 238.71638,548.0379 L 238.71638,564.11603 L 235.64607,564.11603 L 224.92342,551.4715 L 224.92342,562.69806 L 227.14998,562.69806 L 227.14998,564.11603 L 221.03279,564.11603 z"
             transform="matrix(0.5555702,-0.8314696,0.8314696,0.5555702,0,0)"
             id="text3819"
             style="font-size:24px;font-style:normal;font-variant:normal;font-weight:bold;font-stretch:normal;text-align:start;line-height:125%;writing-mode:lr-tb;text-anchor:start;fill:#000000;fill-opacity:1;stroke:none;stroke-width:1px;stroke-linecap:butt;stroke-linejoin:miter;stroke-opacity:1;font-family:DejaVu Serif;-inkscape-font-specification:DejaVu Serif Bold" />
          <path
             d="M 385.28525,563.69904 L 385.28525,562.28107 L 387.52353,562.28107 L 387.52353,547.62091 L 385.28525,547.62091 L 385.28525,546.20294 L 390.7579,546.20294 L 401.3165,558.58966 L 401.3165,547.62091 L 399.08994,547.62091 L 399.08994,546.20294 L 405.20712,546.20294 L 405.20712,547.62091 L 402.96884,547.62091 L 402.96884,563.69904 L 399.89853,563.69904 L 389.17587,551.0545 L 389.17587,562.28107 L 391.40244,562.28107 L 391.40244,563.69904 L 385.28525,563.69904 z M 416.60947,562.62091 C 418.10164,562.62091 419.21102,561.99201 419.93759,560.73419 C 420.66414,559.47638 421.02742,557.55451 421.02744,554.96857 C 421.02742,552.37483 420.66414,550.44905 419.93759,549.19122 C 419.21102,547.93343 418.10164,547.30452 416.60947,547.3045 C 415.12508,547.30452 414.01766,547.93929 413.2872,549.2088 C 412.55673,550.47835 412.19149,552.39827 412.1915,554.96857 C 412.19149,557.53107 412.55673,559.44709 413.2872,560.71661 C 414.01766,561.98615 415.12508,562.62091 416.60947,562.62091 L 416.60947,562.62091 z M 416.60947,564.03888 C 413.66415,564.03888 411.35556,563.23419 409.68369,561.62482 C 408.01181,560.01545 407.17587,557.7967 407.17587,554.96857 C 407.17587,552.14045 408.01376,549.91975 409.68954,548.30646 C 411.36532,546.69319 413.67196,545.88655 416.60947,545.88654 C 419.55477,545.88655 421.86336,546.69124 423.53525,548.3006 C 425.2071,549.90999 426.04304,552.13264 426.04306,554.96857 C 426.04304,557.7967 425.20515,560.01545 423.52939,561.62482 C 421.85359,563.23419 419.54695,564.03888 416.60947,564.03888 L 416.60947,564.03888 z M 427.91806,563.69904 L 427.91806,562.28107 L 435.0665,552.6131 L 429.68759,552.6131 L 429.68759,554.74591 L 428.29306,554.74591 L 428.29306,551.242 L 439.89462,551.242 L 439.89462,552.63654 L 432.73447,562.3045 L 438.50009,562.3045 L 438.50009,560.0545 L 439.89462,560.0545 L 439.89462,563.69904 L 427.91806,563.69904 z M 451.15634,562.62091 C 452.64852,562.62091 453.75789,561.99201 454.48447,560.73419 C 455.21101,559.47638 455.5743,557.55451 455.57431,554.96857 C 455.5743,552.37483 455.21101,550.44905 454.48447,549.19122 C 453.75789,547.93343 452.64852,547.30452 451.15634,547.3045 C 449.67196,547.30452 448.56454,547.93929 447.83408,549.2088 C 447.1036,550.47835 446.73837,552.39827 446.73837,554.96857 C 446.73837,557.53107 447.1036,559.44709 447.83408,560.71661 C 448.56454,561.98615 449.67196,562.62091 451.15634,562.62091 L 451.15634,562.62091 z M 451.15634,564.03888 C 448.21102,564.03888 445.90243,563.23419 444.23056,561.62482 C 442.55868,560.01545 441.72275,557.7967 441.72275,554.96857 C 441.72275,552.14045 442.56064,549.91975 444.23642,548.30646 C 445.9122,546.69319 448.21883,545.88655 451.15634,545.88654 C 454.10164,545.88655 456.41023,546.69124 458.08212,548.3006 C 459.75398,549.90999 460.58992,552.13264 460.58994,554.96857 C 460.58992,557.7967 459.75203,560.01545 458.07626,561.62482 C 456.40047,563.23419 454.09383,564.03888 451.15634,564.03888 L 451.15634,564.03888 z"
             transform="matrix(0.8314696,-0.5555702,0.5555702,0.8314696,0,0)"
             id="text3823"
             style="font-size:24px;font-style:normal;font-variant:normal;font-weight:bold;font-stretch:normal;text-align:start;line-height:125%;writing-mode:lr-tb;text-anchor:start;fill:#000000;fill-opacity:1;stroke:none;stroke-width:1px;stroke-linecap:butt;stroke-linejoin:miter;stroke-opacity:1;font-family:DejaVu Serif;-inkscape-font-specification:DejaVu Serif Bold" />
          <path
             d="M 754.82623,321.96481 C 756.31841,321.96481 757.42778,321.33591 758.15436,320.07809 C 758.88091,318.82029 759.24419,316.89841 759.2442,314.31247 C 759.24419,311.71873 758.88091,309.79295 758.15436,308.53513 C 757.42778,307.27733 756.31841,306.64842 754.82623,306.64841 C 753.34185,306.64842 752.23443,307.28319 751.50397,308.5527 C 750.77349,309.82225 750.40826,311.74217 750.40826,314.31247 C 750.40826,316.87498 750.77349,318.79099 751.50397,320.06052 C 752.23443,321.33005 753.34185,321.96481 754.82623,321.96481 L 754.82623,321.96481 z M 754.82623,323.38278 C 751.88091,323.38278 749.57232,322.57809 747.90045,320.96872 C 746.22857,319.35935 745.39264,317.1406 745.39264,314.31247 C 745.39264,311.48436 746.23053,309.26366 747.90631,307.65036 C 749.58209,306.0371 751.88873,305.23046 754.82623,305.23044 C 757.77153,305.23046 760.08012,306.03514 761.75201,307.6445 C 763.42387,309.25389 764.25981,311.47654 764.25983,314.31247 C 764.25981,317.1406 763.42192,319.35935 761.74615,320.96872 C 760.07036,322.57809 757.76372,323.38278 754.82623,323.38278 L 754.82623,323.38278 z M 766.13483,323.04294 L 766.13483,321.62497 L 773.28326,311.957 L 767.90436,311.957 L 767.90436,314.08981 L 766.50983,314.08981 L 766.50983,310.58591 L 778.11139,310.58591 L 778.11139,311.98044 L 770.95123,321.64841 L 776.71686,321.64841 L 776.71686,319.39841 L 778.11139,319.39841 L 778.11139,323.04294 L 766.13483,323.04294 z M 780.78326,322.19919 L 780.78326,318.05075 L 782.27155,318.05075 C 782.4981,319.36325 783.03326,320.34372 783.87701,320.99216 C 784.72076,321.6406 785.88873,321.96481 787.38092,321.96481 C 788.59185,321.96481 789.51372,321.73435 790.14655,321.27341 C 790.77935,320.81247 791.09575,320.13669 791.09576,319.24606 C 791.09575,318.54294 790.88091,317.99607 790.45123,317.60544 C 790.02153,317.21482 789.13482,316.85154 787.79108,316.51559 L 785.16608,315.87106 C 783.45513,315.43357 782.25201,314.82615 781.5567,314.0488 C 780.86139,313.27146 780.51373,312.16404 780.51373,310.72653 C 780.51373,308.99217 781.0899,307.64256 782.24225,306.6777 C 783.39459,305.71288 785.00982,305.23046 787.08795,305.23044 C 788.11138,305.23046 789.17583,305.31639 790.28131,305.48825 C 791.38677,305.66014 792.53325,305.91796 793.72076,306.26169 L 793.72076,310.12888 L 792.23248,310.12888 C 792.00591,308.92576 791.50981,308.04491 790.7442,307.4863 C 789.97857,306.92772 788.88872,306.64842 787.47467,306.64841 C 786.31841,306.64842 785.44537,306.8496 784.85553,307.25192 C 784.26568,307.65428 783.97076,308.25389 783.97076,309.05075 C 783.97076,309.77733 784.17388,310.33006 784.58014,310.70895 C 784.98638,311.08787 785.98248,311.48045 787.56842,311.88669 L 790.19342,312.53122 C 791.81841,312.93748 792.99614,313.57029 793.72662,314.42966 C 794.45708,315.28904 794.82231,316.47263 794.82233,317.98044 C 794.82231,319.74607 794.21294,321.08786 792.9942,322.00583 C 791.77544,322.9238 789.98247,323.38278 787.6153,323.38278 C 786.47466,323.38278 785.34185,323.28513 784.21686,323.08981 C 783.09185,322.8945 781.94732,322.59763 780.78326,322.19919 L 780.78326,322.19919 z"
             transform="matrix(0.9807853,0.1950903,-0.1950903,0.9807853,0,0)"
             id="text3827"
             style="font-size:24px;font-style:normal;font-variant:normal;font-weight:bold;font-stretch:normal;text-align:start;line-height:125%;writing-mode:lr-tb;text-anchor:start;fill:#000000;fill-opacity:1;stroke:none;stroke-width:1px;stroke-linecap:butt;stroke-linejoin:miter;stroke-opacity:1;font-family:DejaVu Serif;-inkscape-font-specification:DejaVu Serif Bold" />
          <path
             d="M 830.02612,118.37805 L 830.02612,114.22961 L 831.5144,114.22961 C 831.74096,115.54212 832.27612,116.52259 833.11987,117.17102 C 833.96362,117.81946 835.13158,118.14368 836.62378,118.14368 C 837.83471,118.14368 838.75658,117.91321 839.3894,117.45227 C 840.0222,116.99134 840.33861,116.31555 840.33862,115.42493 C 840.33861,114.72181 840.12377,114.17493 839.69409,113.7843 C 839.26439,113.39368 838.37768,113.0304 837.03394,112.69446 L 834.40894,112.04993 C 832.69799,111.61243 831.49487,111.00501 830.79956,110.22766 C 830.10425,109.45033 829.75659,108.34291 829.75659,106.9054 C 829.75659,105.17103 830.33276,103.82143 831.48511,102.85657 C 832.63745,101.89174 834.25268,101.40932 836.33081,101.4093 C 837.35424,101.40932 838.41869,101.49526 839.52417,101.66711 C 840.62963,101.83901 841.77611,102.09682 842.96362,102.44055 L 842.96362,106.30774 L 841.47534,106.30774 C 841.24877,105.10463 840.75267,104.22377 839.98706,103.66516 C 839.22142,103.10658 838.13158,102.82729 836.71753,102.82727 C 835.56127,102.82729 834.68823,103.02846 834.09839,103.43079 C 833.50854,103.83315 833.21362,104.43275 833.21362,105.22961 C 833.21362,105.95619 833.41674,106.50892 833.823,106.88782 C 834.22924,107.26674 835.22533,107.65931 836.81128,108.06555 L 839.43628,108.71008 C 841.06127,109.11634 842.239,109.74915 842.96948,110.60852 C 843.69994,111.4679 844.06517,112.6515 844.06519,114.1593 C 844.06517,115.92493 843.4558,117.26673 842.23706,118.18469 C 841.0183,119.10266 839.22533,119.56165 836.85815,119.56165 C 835.71752,119.56165 834.58471,119.46399 833.45972,119.26868 C 832.33471,119.07336 831.19018,118.77649 830.02612,118.37805 L 830.02612,118.37805 z M 855.95972,118.14368 C 857.45189,118.14368 858.56127,117.51477 859.28784,116.25696 C 860.01439,114.99915 860.37767,113.07728 860.37769,110.49133 C 860.37767,107.89759 860.01439,105.97182 859.28784,104.71399 C 858.56127,103.45619 857.45189,102.82729 855.95972,102.82727 C 854.47533,102.82729 853.36791,103.46205 852.63745,104.73157 C 851.90698,106.00111 851.54174,107.92103 851.54175,110.49133 C 851.54174,113.05384 851.90698,114.96985 852.63745,116.23938 C 853.36791,117.50891 854.47533,118.14368 855.95972,118.14368 L 855.95972,118.14368 z M 855.95972,119.56165 C 853.0144,119.56165 850.70581,118.75696 849.03394,117.14758 C 847.36206,115.53821 846.52612,113.31946 846.52612,110.49133 C 846.52612,107.66322 847.36401,105.44252 849.03979,103.82922 C 850.71557,102.21596 853.02221,101.40932 855.95972,101.4093 C 858.90502,101.40932 861.21361,102.21401 862.8855,103.82336 C 864.55735,105.43275 865.39329,107.65541 865.39331,110.49133 C 865.39329,113.31946 864.5554,115.53821 862.87964,117.14758 C 861.20384,118.75696 858.8972,119.56165 855.95972,119.56165 L 855.95972,119.56165 z M 867.26831,119.2218 L 867.26831,117.80383 L 874.41675,108.13586 L 869.03784,108.13586 L 869.03784,110.26868 L 867.64331,110.26868 L 867.64331,106.76477 L 879.24487,106.76477 L 879.24487,108.1593 L 872.08472,117.82727 L 877.85034,117.82727 L 877.85034,115.57727 L 879.24487,115.57727 L 879.24487,119.2218 L 867.26831,119.2218 z M 890.50659,118.14368 C 891.99877,118.14368 893.10814,117.51477 893.83472,116.25696 C 894.56126,114.99915 894.92455,113.07728 894.92456,110.49133 C 894.92455,107.89759 894.56126,105.97182 893.83472,104.71399 C 893.10814,103.45619 891.99877,102.82729 890.50659,102.82727 C 889.02221,102.82729 887.91479,103.46205 887.18433,104.73157 C 886.45385,106.00111 886.08862,107.92103 886.08862,110.49133 C 886.08862,113.05384 886.45385,114.96985 887.18433,116.23938 C 887.91479,117.50891 889.02221,118.14368 890.50659,118.14368 L 890.50659,118.14368 z M 890.50659,119.56165 C 887.56127,119.56165 885.25268,118.75696 883.58081,117.14758 C 881.90893,115.53821 881.073,113.31946 881.073,110.49133 C 881.073,107.66322 881.91089,105.44252 883.58667,103.82922 C 885.26245,102.21596 887.56908,101.40932 890.50659,101.4093 C 893.45189,101.40932 895.76048,102.21401 897.43237,103.82336 C 899.10423,105.43275 899.94017,107.65541 899.94019,110.49133 C 899.94017,113.31946 899.10228,115.53821 897.42651,117.14758 C 895.75072,118.75696 893.44408,119.56165 890.50659,119.56165 L 890.50659,119.56165 z"
             transform="matrix(0.8314696,0.5555702,-0.5555702,0.8314696,0,0)"
             id="text3831"
             style="font-size:24px;font-style:normal;font-variant:normal;font-weight:bold;font-stretch:normal;text-align:start;line-height:125%;writing-mode:lr-tb;text-anchor:start;fill:#000000;fill-opacity:1;stroke:none;stroke-width:1px;stroke-linecap:butt;stroke-linejoin:miter;stroke-opacity:1;font-family:DejaVu Serif;-inkscape-font-specification:DejaVu Serif Bold" />
          <path
             d="M 830.01257,-102.41483 L 830.01257,-106.56327 L 831.50085,-106.56327 C 831.72741,-105.25077 832.26257,-104.2703 833.10632,-103.62186 C 833.95007,-102.97343 835.11804,-102.64921 836.61023,-102.64921 C 837.82116,-102.64921 838.74303,-102.87968 839.37585,-103.34061 C 840.00866,-103.80155 840.32506,-104.47733 840.32507,-105.36796 C 840.32506,-106.07108 840.11022,-106.61795 839.68054,-107.00858 C 839.25084,-107.3992 838.36413,-107.76248 837.02039,-108.09843 L 834.39539,-108.74296 C 832.68444,-109.18045 831.48132,-109.78787 830.78601,-110.56522 C 830.0907,-111.34256 829.74304,-112.44998 829.74304,-113.88749 C 829.74304,-115.62185 830.31921,-116.97146 831.47156,-117.93632 C 832.6239,-118.90114 834.23913,-119.38357 836.31726,-119.38358 C 837.34069,-119.38357 838.40514,-119.29763 839.51062,-119.12577 C 840.61608,-118.95388 841.76256,-118.69607 842.95007,-118.35233 L 842.95007,-114.48515 L 841.46179,-114.48515 C 841.23522,-115.68826 840.73912,-116.56911 839.97351,-117.12772 C 839.20787,-117.6863 838.11803,-117.9656 836.70398,-117.96561 C 835.54772,-117.9656 834.67468,-117.76443 834.08484,-117.3621 C 833.49499,-116.95974 833.20007,-116.36013 833.20007,-115.56327 C 833.20007,-114.83669 833.40319,-114.28396 833.80945,-113.90507 C 834.21569,-113.52615 835.21178,-113.13357 836.79773,-112.72733 L 839.42273,-112.0828 C 841.04772,-111.67654 842.22545,-111.04373 842.95593,-110.18436 C 843.68639,-109.32498 844.05162,-108.14139 844.05164,-106.63358 C 844.05162,-104.86795 843.44225,-103.52616 842.22351,-102.60819 C 841.00475,-101.69022 839.21178,-101.23124 836.8446,-101.23124 C 835.70397,-101.23124 834.57116,-101.3289 833.44617,-101.52421 C 832.32116,-101.71952 831.17663,-102.0164 830.01257,-102.41483 L 830.01257,-102.41483 z M 855.94617,-102.64921 C 857.43834,-102.64921 858.54772,-103.27811 859.27429,-104.53593 C 860.00084,-105.79374 860.36412,-107.71561 860.36414,-110.30155 C 860.36412,-112.89529 860.00084,-114.82107 859.27429,-116.0789 C 858.54772,-117.33669 857.43834,-117.9656 855.94617,-117.96561 C 854.46178,-117.9656 853.35436,-117.33083 852.6239,-116.06132 C 851.89343,-114.79177 851.52819,-112.87185 851.5282,-110.30155 C 851.52819,-107.73905 851.89343,-105.82303 852.6239,-104.5535 C 853.35436,-103.28397 854.46178,-102.64921 855.94617,-102.64921 L 855.94617,-102.64921 z M 855.94617,-101.23124 C 853.00085,-101.23124 850.69226,-102.03593 849.02039,-103.6453 C 847.34851,-105.25467 846.51257,-107.47342 846.51257,-110.30155 C 846.51257,-113.12967 847.35046,-115.35037 849.02625,-116.96366 C 850.70202,-118.57693 853.00866,-119.38357 855.94617,-119.38358 C 858.89147,-119.38357 861.20006,-118.57888 862.87195,-116.96952 C 864.5438,-115.36013 865.37974,-113.13748 865.37976,-110.30155 C 865.37974,-107.47342 864.54185,-105.25467 862.86609,-103.6453 C 861.19029,-102.03593 858.88365,-101.23124 855.94617,-101.23124 L 855.94617,-101.23124 z M 867.25476,-101.57108 L 867.25476,-102.98905 L 874.4032,-112.65702 L 869.02429,-112.65702 L 869.02429,-110.52421 L 867.62976,-110.52421 L 867.62976,-114.02811 L 879.23132,-114.02811 L 879.23132,-112.63358 L 872.07117,-102.96561 L 877.83679,-102.96561 L 877.83679,-105.21561 L 879.23132,-105.21561 L 879.23132,-101.57108 L 867.25476,-101.57108 z M 881.9032,-102.41483 L 881.9032,-106.56327 L 883.39148,-106.56327 C 883.61804,-105.25077 884.15319,-104.2703 884.99695,-103.62186 C 885.84069,-102.97343 887.00866,-102.64921 888.50085,-102.64921 C 889.71178,-102.64921 890.63366,-102.87968 891.26648,-103.34061 C 891.89928,-103.80155 892.21569,-104.47733 892.2157,-105.36796 C 892.21569,-106.07108 892.00084,-106.61795 891.57117,-107.00858 C 891.14147,-107.3992 890.25475,-107.76248 888.91101,-108.09843 L 886.28601,-108.74296 C 884.57507,-109.18045 883.37194,-109.78787 882.67664,-110.56522 C 881.98132,-111.34256 881.63367,-112.44998 881.63367,-113.88749 C 881.63367,-115.62185 882.20984,-116.97146 883.36218,-117.93632 C 884.51452,-118.90114 886.12975,-119.38357 888.20789,-119.38358 C 889.23131,-119.38357 890.29577,-119.29763 891.40125,-119.12577 C 892.5067,-118.95388 893.65318,-118.69607 894.8407,-118.35233 L 894.8407,-114.48515 L 893.35242,-114.48515 C 893.12584,-115.68826 892.62975,-116.56911 891.86414,-117.12772 C 891.0985,-117.6863 890.00866,-117.9656 888.5946,-117.96561 C 887.43835,-117.9656 886.5653,-117.76443 885.97546,-117.3621 C 885.38561,-116.95974 885.09069,-116.36013 885.0907,-115.56327 C 885.09069,-114.83669 885.29382,-114.28396 885.70007,-113.90507 C 886.10632,-113.52615 887.10241,-113.13357 888.68835,-112.72733 L 891.31335,-112.0828 C 892.93834,-111.67654 894.11607,-111.04373 894.84656,-110.18436 C 895.57701,-109.32498 895.94224,-108.14139 895.94226,-106.63358 C 895.94224,-104.86795 895.33287,-103.52616 894.11414,-102.60819 C 892.89537,-101.69022 891.10241,-101.23124 888.73523,-101.23124 C 887.5946,-101.23124 886.46179,-101.3289 885.33679,-101.52421 C 884.21179,-101.71952 883.06726,-102.0164 881.9032,-102.41483 L 881.9032,-102.41483 z"
             transform="matrix(0.5555702,0.8314696,-0.8314696,0.5555702,0,0)"
             id="text3835"
             style="font-size:24px;font-style:normal;font-variant:normal;font-weight:bold;font-stretch:normal;text-align:start;line-height:125%;writing-mode:lr-tb;text-anchor:start;fill:#000000;fill-opacity:1;stroke:none;stroke-width:1px;stroke-linecap:butt;stroke-linejoin:miter;stroke-opacity:1;font-family:DejaVu Serif;-inkscape-font-specification:DejaVu Serif Bold" />
          <path
             d="M 745.54657,-306.64249 L 745.54657,-310.79092 L 747.03485,-310.79092 C 747.26141,-309.47842 747.79657,-308.49795 748.64032,-307.84952 C 749.48406,-307.20108 750.65203,-306.87686 752.14423,-306.87686 C 753.35515,-306.87686 754.27703,-307.10733 754.90985,-307.56827 C 755.54265,-308.0292 755.85906,-308.70498 755.85907,-309.59561 C 755.85906,-310.29873 755.64421,-310.84561 755.21454,-311.23624 C 754.78484,-311.62686 753.89812,-311.99014 752.55438,-312.32608 L 749.92938,-312.97061 C 748.21844,-313.4081 747.01532,-314.01553 746.32001,-314.79288 C 745.62469,-315.57021 745.27704,-316.67763 745.27704,-318.11514 C 745.27704,-319.8495 745.85321,-321.19911 747.00555,-322.16397 C 748.15789,-323.1288 749.77313,-323.61122 751.85126,-323.61124 C 752.87469,-323.61122 753.93914,-323.52528 755.04462,-323.35342 C 756.15007,-323.18153 757.29656,-322.92372 758.48407,-322.57999 L 758.48407,-318.7128 L 756.99579,-318.7128 C 756.76921,-319.91591 756.27312,-320.79677 755.50751,-321.35538 C 754.74187,-321.91395 753.65203,-322.19325 752.23798,-322.19327 C 751.08172,-322.19325 750.20867,-321.99208 749.61884,-321.58975 C 749.02899,-321.18739 748.73406,-320.58778 748.73407,-319.79092 C 748.73406,-319.06435 748.93719,-318.51161 749.34344,-318.13272 C 749.74969,-317.7538 750.74578,-317.36123 752.33173,-316.95499 L 754.95673,-316.31046 C 756.58171,-315.9042 757.75945,-315.27138 758.48993,-314.41202 C 759.22038,-313.55264 759.58562,-312.36904 759.58563,-310.86124 C 759.58562,-309.09561 758.97624,-307.75381 757.75751,-306.83585 C 756.53874,-305.91788 754.74578,-305.45889 752.3786,-305.45889 C 751.23797,-305.45889 750.10516,-305.55655 748.98016,-305.75186 C 747.85516,-305.94717 746.71063,-306.24405 745.54657,-306.64249 L 745.54657,-306.64249 z M 761.88251,-305.79874 L 761.88251,-307.21671 L 769.03094,-316.88467 L 763.65204,-316.88467 L 763.65204,-314.75186 L 762.25751,-314.75186 L 762.25751,-318.25577 L 773.85907,-318.25577 L 773.85907,-316.86124 L 766.69891,-307.19327 L 772.46454,-307.19327 L 772.46454,-309.44327 L 773.85907,-309.44327 L 773.85907,-305.79874 L 761.88251,-305.79874 z M 785.12079,-306.87686 C 786.61296,-306.87686 787.72234,-307.50577 788.44891,-308.76358 C 789.17546,-310.02139 789.53874,-311.94326 789.53876,-314.52921 C 789.53874,-317.12294 789.17546,-319.04872 788.44891,-320.30655 C 787.72234,-321.56435 786.61296,-322.19325 785.12079,-322.19327 C 783.6364,-322.19325 782.52898,-321.55849 781.79852,-320.28897 C 781.06805,-319.01943 780.70281,-317.09951 780.70282,-314.52921 C 780.70281,-311.9667 781.06805,-310.05069 781.79852,-308.78116 C 782.52898,-307.51163 783.6364,-306.87686 785.12079,-306.87686 L 785.12079,-306.87686 z M 785.12079,-305.45889 C 782.17547,-305.45889 779.86688,-306.26358 778.19501,-307.87296 C 776.52313,-309.48233 775.68719,-311.70107 775.68719,-314.52921 C 775.68719,-317.35732 776.52508,-319.57802 778.20087,-321.19131 C 779.87664,-322.80458 782.18328,-323.61122 785.12079,-323.61124 C 788.06609,-323.61122 790.37468,-322.80653 792.04657,-321.19717 C 793.71843,-319.58779 794.55436,-317.36513 794.55438,-314.52921 C 794.55436,-311.70107 793.71647,-309.48233 792.04071,-307.87296 C 790.36491,-306.26358 788.05828,-305.45889 785.12079,-305.45889 L 785.12079,-305.45889 z"
             transform="matrix(0.1950903,0.9807853,-0.9807853,0.1950903,0,0)"
             id="text3839"
             style="font-size:24px;font-style:normal;font-variant:normal;font-weight:bold;font-stretch:normal;text-align:start;line-height:125%;writing-mode:lr-tb;text-anchor:start;fill:#000000;fill-opacity:1;stroke:none;stroke-width:1px;stroke-linecap:butt;stroke-linejoin:miter;stroke-opacity:1;font-family:DejaVu Serif;-inkscape-font-specification:DejaVu Serif Bold" />
          <path
             d="M -645.54681,478.55106 L -645.54681,474.40262 L -644.05853,474.40262 C -643.83197,475.71512 -643.29682,476.69559 -642.45306,477.34402 C -641.60932,477.99246 -640.44135,478.31668 -638.94916,478.31668 C -637.73823,478.31668 -636.81636,478.08621 -636.18353,477.62527 C -635.55073,477.16434 -635.23433,476.48856 -635.23431,475.59793 C -635.23433,474.89481 -635.44917,474.34794 -635.87885,473.95731 C -636.30854,473.56669 -637.19526,473.20341 -638.539,472.86746 L -641.164,472.22293 C -642.87494,471.78544 -644.07807,471.17802 -644.77338,470.40067 C -645.46869,469.62333 -645.81635,468.51591 -645.81635,467.0784 C -645.81635,465.34404 -645.24018,463.99443 -644.08783,463.02957 C -642.93549,462.06475 -641.32026,461.58232 -639.24213,461.58231 C -638.2187,461.58232 -637.15425,461.66826 -636.04877,461.84012 C -634.94331,462.01201 -633.79683,462.26982 -632.60931,462.61356 L -632.60931,466.48074 L -634.0976,466.48074 C -634.32417,465.27763 -634.82026,464.39677 -635.58588,463.83817 C -636.35151,463.27959 -637.44136,463.00029 -638.85541,463.00027 C -640.01167,463.00029 -640.88471,463.20146 -641.47455,463.60379 C -642.0644,464.00615 -642.35932,464.60576 -642.35931,465.40262 C -642.35932,466.12919 -642.15619,466.68193 -641.74994,467.06082 C -641.3437,467.43974 -640.3476,467.83232 -638.76166,468.23856 L -636.13666,468.88309 C -634.51167,469.28935 -633.33394,469.92216 -632.60345,470.78152 C -631.873,471.64091 -631.50777,472.8245 -631.50775,474.33231 C -631.50777,476.09793 -632.11714,477.43973 -633.33588,478.3577 C -634.55464,479.27567 -636.34761,479.73465 -638.71478,479.73465 C -639.85542,479.73465 -640.98823,479.63699 -642.11322,479.44168 C -643.23822,479.24637 -644.38275,478.94949 -645.54681,478.55106 L -645.54681,478.55106 z M -629.21088,479.39481 L -629.21088,477.97684 L -622.06244,468.30887 L -627.44135,468.30887 L -627.44135,470.44168 L -628.83588,470.44168 L -628.83588,466.93777 L -617.23431,466.93777 L -617.23431,468.33231 L -624.39447,478.00027 L -618.62885,478.00027 L -618.62885,475.75027 L -617.23431,475.75027 L -617.23431,479.39481 L -629.21088,479.39481 z M -595.96478,479.39481 L -598.98822,479.39481 L -602.94916,466.65652 L -606.9101,479.39481 L -609.93353,479.39481 L -614.92572,463.31668 L -616.62494,463.31668 L -616.62494,461.89871 L -608.32806,461.89871 L -608.32806,463.31668 L -610.20306,463.31668 L -606.86322,474.06277 L -603.08978,461.89871 L -599.76166,461.89871 L -595.91791,474.26199 L -592.50775,463.31668 L -594.59369,463.31668 L -594.59369,461.89871 L -589.17963,461.89871 L -589.17963,463.31668 L -590.9726,463.31668 L -595.96478,479.39481 z"
             transform="matrix(0.1950903,-0.9807853,0.9807853,0.1950903,0,0)"
             id="text3843"
             style="font-size:24px;font-style:normal;font-variant:normal;font-weight:bold;font-stretch:normal;text-align:start;line-height:125%;writing-mode:lr-tb;text-anchor:start;fill:#000000;fill-opacity:1;stroke:none;stroke-width:1px;stroke-linecap:butt;stroke-linejoin:miter;stroke-opacity:1;font-family:DejaVu Serif;-inkscape-font-specification:DejaVu Serif Bold" />
          <path
             d="M -457.32495,562.52277 L -457.32495,558.37433 L -455.83667,558.37433 C -455.61011,559.68683 -455.07496,560.6673 -454.2312,561.31573 C -453.38746,561.96417 -452.21949,562.28839 -450.72729,562.28839 C -449.51637,562.28839 -448.59449,562.05792 -447.96167,561.59698 C -447.32887,561.13605 -447.01246,560.46027 -447.01245,559.56964 C -447.01246,558.86652 -447.22731,558.31965 -447.65698,557.92902 C -448.08668,557.5384 -448.9734,557.17512 -450.31714,556.83917 L -452.94214,556.19464 C -454.65308,555.75715 -455.8562,555.14973 -456.55151,554.37238 C -457.24683,553.59504 -457.59448,552.48762 -457.59448,551.05011 C -457.59448,549.31575 -457.01831,547.96614 -455.86597,547.00128 C -454.71363,546.03646 -453.09839,545.55403 -451.02026,545.55402 C -449.99684,545.55403 -448.93238,545.63997 -447.8269,545.81183 C -446.72145,545.98372 -445.57496,546.24153 -444.38745,546.58527 L -444.38745,550.45245 L -445.87573,550.45245 C -446.10231,549.24934 -446.5984,548.36848 -447.36401,547.80988 C -448.12965,547.2513 -449.21949,546.972 -450.63354,546.97198 C -451.7898,546.972 -452.66285,547.17317 -453.25269,547.5755 C -453.84253,547.97786 -454.13746,548.57747 -454.13745,549.37433 C -454.13746,550.1009 -453.93433,550.65364 -453.52808,551.03253 C -453.12183,551.41145 -452.12574,551.80403 -450.53979,552.21027 L -447.91479,552.8548 C -446.28981,553.26106 -445.11207,553.89387 -444.38159,554.75323 C -443.65114,555.61262 -443.2859,556.79621 -443.28589,558.30402 C -443.2859,560.06964 -443.89528,561.41144 -445.11401,562.32941 C -446.33278,563.24738 -448.12574,563.70636 -450.49292,563.70636 C -451.63355,563.70636 -452.76636,563.6087 -453.89136,563.41339 C -455.01636,563.21808 -456.16089,562.9212 -457.32495,562.52277 L -457.32495,562.52277 z M -421.38354,563.36652 L -424.40698,563.36652 L -428.36792,550.62823 L -432.32886,563.36652 L -435.35229,563.36652 L -440.34448,547.28839 L -442.0437,547.28839 L -442.0437,545.87042 L -433.74683,545.87042 L -433.74683,547.28839 L -435.62183,547.28839 L -432.28198,558.03448 L -428.50854,545.87042 L -425.18042,545.87042 L -421.33667,558.2337 L -417.92651,547.28839 L -420.01245,547.28839 L -420.01245,545.87042 L -414.59839,545.87042 L -414.59839,547.28839 L -416.39136,547.28839 L -421.38354,563.36652 z M -414.03589,563.36652 L -414.03589,561.94855 L -406.88745,552.28058 L -412.26636,552.28058 L -412.26636,554.41339 L -413.66089,554.41339 L -413.66089,550.90948 L -402.05933,550.90948 L -402.05933,552.30402 L -409.21948,561.97198 L -403.45386,561.97198 L -403.45386,559.72198 L -402.05933,559.72198 L -402.05933,563.36652 L -414.03589,563.36652 z M -399.38745,562.52277 L -399.38745,558.37433 L -397.89917,558.37433 C -397.67261,559.68683 -397.13746,560.6673 -396.2937,561.31573 C -395.44996,561.96417 -394.28199,562.28839 -392.78979,562.28839 C -391.57887,562.28839 -390.65699,562.05792 -390.02417,561.59698 C -389.39137,561.13605 -389.07496,560.46027 -389.07495,559.56964 C -389.07496,558.86652 -389.28981,558.31965 -389.71948,557.92902 C -390.14918,557.5384 -391.0359,557.17512 -392.37964,556.83917 L -395.00464,556.19464 C -396.71558,555.75715 -397.9187,555.14973 -398.61401,554.37238 C -399.30933,553.59504 -399.65698,552.48762 -399.65698,551.05011 C -399.65698,549.31575 -399.08081,547.96614 -397.92847,547.00128 C -396.77613,546.03646 -395.16089,545.55403 -393.08276,545.55402 C -392.05934,545.55403 -390.99488,545.63997 -389.8894,545.81183 C -388.78395,545.98372 -387.63746,546.24153 -386.44995,546.58527 L -386.44995,550.45245 L -387.93823,550.45245 C -388.16481,549.24934 -388.6609,548.36848 -389.42651,547.80988 C -390.19215,547.2513 -391.28199,546.972 -392.69604,546.97198 C -393.8523,546.972 -394.72535,547.17317 -395.31519,547.5755 C -395.90503,547.97786 -396.19996,548.57747 -396.19995,549.37433 C -396.19996,550.1009 -395.99683,550.65364 -395.59058,551.03253 C -395.18433,551.41145 -394.18824,551.80403 -392.60229,552.21027 L -389.97729,552.8548 C -388.35231,553.26106 -387.17457,553.89387 -386.44409,554.75323 C -385.71364,555.61262 -385.3484,556.79621 -385.34839,558.30402 C -385.3484,560.06964 -385.95778,561.41144 -387.17651,562.32941 C -388.39528,563.24738 -390.18824,563.70636 -392.55542,563.70636 C -393.69605,563.70636 -394.82886,563.6087 -395.95386,563.41339 C -397.07886,563.21808 -398.22339,562.9212 -399.38745,562.52277 L -399.38745,562.52277 z"
             transform="matrix(0.5555702,-0.8314696,0.8314696,0.5555702,0,0)"
             id="text3847"
             style="font-size:24px;font-style:normal;font-variant:normal;font-weight:bold;font-stretch:normal;text-align:start;line-height:125%;writing-mode:lr-tb;text-anchor:start;fill:#000000;fill-opacity:1;stroke:none;stroke-width:1px;stroke-linecap:butt;stroke-linejoin:miter;stroke-opacity:1;font-family:DejaVu Serif;-inkscape-font-specification:DejaVu Serif Bold" />
          <path
             d="M -247.79565,562.72998 L -247.79565,558.58154 L -246.30737,558.58154 C -246.08081,559.89405 -245.54566,560.87451 -244.7019,561.52295 C -243.85816,562.17139 -242.69019,562.49561 -241.198,562.49561 C -239.98707,562.49561 -239.0652,562.26514 -238.43237,561.8042 C -237.79957,561.34326 -237.48317,560.66748 -237.48315,559.77686 C -237.48317,559.07373 -237.69801,558.52686 -238.12769,558.13623 C -238.55738,557.74561 -239.4441,557.38233 -240.78784,557.04639 L -243.41284,556.40186 C -245.12378,555.96436 -246.32691,555.35694 -247.02222,554.57959 C -247.71753,553.80226 -248.06519,552.69484 -248.06519,551.25732 C -248.06519,549.52296 -247.48902,548.17336 -246.33667,547.2085 C -245.18433,546.24367 -243.5691,545.76125 -241.49097,545.76123 C -240.46754,545.76125 -239.40309,545.84719 -238.29761,546.01904 C -237.19215,546.19094 -236.04567,546.44875 -234.85815,546.79248 L -234.85815,550.65967 L -236.34644,550.65967 C -236.57301,549.45656 -237.0691,548.5757 -237.83472,548.01709 C -238.60035,547.45851 -239.6902,547.17922 -241.10425,547.1792 C -242.26051,547.17922 -243.13355,547.38039 -243.72339,547.78271 C -244.31324,548.18507 -244.60816,548.78468 -244.60815,549.58154 C -244.60816,550.30812 -244.40503,550.86085 -243.99878,551.23975 C -243.59254,551.61866 -242.59644,552.01124 -241.0105,552.41748 L -238.3855,553.06201 C -236.76051,553.46827 -235.58278,554.10108 -234.85229,554.96045 C -234.12184,555.81983 -233.75661,557.00342 -233.75659,558.51123 C -233.75661,560.27686 -234.36598,561.61865 -235.58472,562.53662 C -236.80348,563.45459 -238.59645,563.91357 -240.96362,563.91357 C -242.10426,563.91357 -243.23707,563.81592 -244.36206,563.62061 C -245.48706,563.42529 -246.63159,563.12842 -247.79565,562.72998 L -247.79565,562.72998 z M -211.85425,563.57373 L -214.87769,563.57373 L -218.83862,550.83545 L -222.79956,563.57373 L -225.823,563.57373 L -230.81519,547.49561 L -232.5144,547.49561 L -232.5144,546.07764 L -224.21753,546.07764 L -224.21753,547.49561 L -226.09253,547.49561 L -222.75269,558.2417 L -218.97925,546.07764 L -215.65112,546.07764 L -211.80737,558.44092 L -208.39722,547.49561 L -210.48315,547.49561 L -210.48315,546.07764 L -205.06909,546.07764 L -205.06909,547.49561 L -206.86206,547.49561 L -211.85425,563.57373 z M -204.50659,563.57373 L -204.50659,562.15576 L -197.35815,552.48779 L -202.73706,552.48779 L -202.73706,554.62061 L -204.13159,554.62061 L -204.13159,551.1167 L -192.53003,551.1167 L -192.53003,552.51123 L -199.69019,562.1792 L -193.92456,562.1792 L -193.92456,559.9292 L -192.53003,559.9292 L -192.53003,563.57373 L -204.50659,563.57373 z M -171.2605,563.57373 L -174.28394,563.57373 L -178.24487,550.83545 L -182.20581,563.57373 L -185.22925,563.57373 L -190.22144,547.49561 L -191.92065,547.49561 L -191.92065,546.07764 L -183.62378,546.07764 L -183.62378,547.49561 L -185.49878,547.49561 L -182.15894,558.2417 L -178.3855,546.07764 L -175.05737,546.07764 L -171.21362,558.44092 L -167.80347,547.49561 L -169.8894,547.49561 L -169.8894,546.07764 L -164.47534,546.07764 L -164.47534,547.49561 L -166.26831,547.49561 L -171.2605,563.57373 z"
             transform="matrix(0.8314696,-0.5555702,0.5555702,0.8314696,0,0)"
             id="text3851"
             style="font-size:24px;font-style:normal;font-variant:normal;font-weight:bold;font-stretch:normal;text-align:start;line-height:125%;writing-mode:lr-tb;text-anchor:start;fill:#000000;fill-opacity:1;stroke:none;stroke-width:1px;stroke-linecap:butt;stroke-linejoin:miter;stroke-opacity:1;font-family:DejaVu Serif;-inkscape-font-specification:DejaVu Serif Bold" />
          <path
             d="M 3.1841583,479.50815 L 0.16072083,479.50815 L -3.8002167,466.76987 L -7.7611542,479.50815 L -10.784592,479.50815 L -15.776779,463.43002 L -17.475998,463.43002 L -17.475998,462.01205 L -9.1791229,462.01205 L -9.1791229,463.43002 L -11.054123,463.43002 L -7.7142792,474.17612 L -3.9408417,462.01205 L -0.61271667,462.01205 L 3.2310333,474.37534 L 6.6411896,463.43002 L 4.5552521,463.43002 L 4.5552521,462.01205 L 9.9693146,462.01205 L 9.9693146,463.43002 L 8.1763458,463.43002 L 3.1841583,479.50815 z M 10.531815,479.50815 L 10.531815,478.09018 L 17.680252,468.42221 L 12.301346,468.42221 L 12.301346,470.55502 L 10.906815,470.55502 L 10.906815,467.05112 L 22.508377,467.05112 L 22.508377,468.44565 L 15.348221,478.11362 L 21.113846,478.11362 L 21.113846,475.86362 L 22.508377,475.86362 L 22.508377,479.50815 L 10.531815,479.50815 z M 25.180252,478.6644 L 25.180252,474.51596 L 26.668533,474.51596 C 26.895092,475.82846 27.430248,476.80893 28.274002,477.45737 C 29.117746,478.10581 30.285714,478.43002 31.777908,478.43002 C 32.988836,478.43002 33.91071,478.19956 34.543533,477.73862 C 35.176334,477.27768 35.49274,476.6019 35.492752,475.71127 C 35.49274,475.00815 35.277896,474.46128 34.848221,474.07065 C 34.418522,473.68003 33.531804,473.31675 32.188065,472.9808 L 29.563065,472.33627 C 27.852123,471.89878 26.648999,471.29136 25.95369,470.51401 C 25.258375,469.73667 24.910719,468.62925 24.910721,467.19174 C 24.910719,465.45738 25.486891,464.10777 26.639236,463.14291 C 27.791576,462.17809 29.406808,461.69567 31.48494,461.69565 C 32.508368,461.69567 33.57282,461.7816 34.678299,461.95346 C 35.783755,462.12535 36.930238,462.38317 38.117752,462.7269 L 38.117752,466.59409 L 36.629471,466.59409 C 36.402895,465.39097 35.906802,464.51012 35.14119,463.95151 C 34.375554,463.39293 33.285711,463.11363 31.871658,463.11362 C 30.715401,463.11363 29.842355,463.31481 29.252518,463.71713 C 28.662669,464.11949 28.367747,464.7191 28.367752,465.51596 C 28.367747,466.24254 28.570872,466.79527 28.977127,467.17416 C 29.383371,467.55308 30.379464,467.94566 31.965408,468.3519 L 34.590408,468.99643 C 36.215395,469.40269 37.393129,470.0355 38.123611,470.89487 C 38.854065,471.75425 39.219299,472.93784 39.219315,474.44565 C 39.219299,476.21128 38.609924,477.55307 37.39119,478.47104 C 36.172427,479.38901 34.37946,479.84799 32.012283,479.84799 C 30.871651,479.84799 29.738839,479.75034 28.613846,479.55502 C 27.488842,479.35971 26.344312,479.06284 25.180252,478.6644 L 25.180252,478.6644 z"
             transform="matrix(0.9807853,-0.1950903,0.1950903,0.9807853,0,0)"
             id="text3855"
             style="font-size:24px;font-style:normal;font-variant:normal;font-weight:bold;font-stretch:normal;text-align:start;line-height:125%;writing-mode:lr-tb;text-anchor:start;fill:#000000;fill-opacity:1;stroke:none;stroke-width:1px;stroke-linecap:butt;stroke-linejoin:miter;stroke-opacity:1;font-family:DejaVu Serif;-inkscape-font-specification:DejaVu Serif Bold" />
          <path
             d="M 154.29852,323.11514 L 151.27509,323.11514 L 147.31415,310.37686 L 143.35321,323.11514 L 140.32977,323.11514 L 135.33759,307.03702 L 133.63837,307.03702 L 133.63837,305.61905 L 141.93524,305.61905 L 141.93524,307.03702 L 140.06024,307.03702 L 143.40009,317.78311 L 147.17352,305.61905 L 150.50165,305.61905 L 154.3454,317.98233 L 157.75555,307.03702 L 155.66962,307.03702 L 155.66962,305.61905 L 161.08368,305.61905 L 161.08368,307.03702 L 159.29071,307.03702 L 154.29852,323.11514 z M 161.64618,323.11514 L 161.64618,321.69717 L 168.79462,312.02921 L 163.41571,312.02921 L 163.41571,314.16202 L 162.02118,314.16202 L 162.02118,310.65811 L 173.62274,310.65811 L 173.62274,312.05264 L 166.46259,321.72061 L 172.22821,321.72061 L 172.22821,319.47061 L 173.62274,319.47061 L 173.62274,323.11514 L 161.64618,323.11514 z M 175.49774,323.11514 L 175.49774,321.69717 L 177.73602,321.69717 L 177.73602,307.03702 L 175.49774,307.03702 L 175.49774,305.61905 L 180.9704,305.61905 L 191.52899,318.00577 L 191.52899,307.03702 L 189.30243,307.03702 L 189.30243,305.61905 L 195.41962,305.61905 L 195.41962,307.03702 L 193.18134,307.03702 L 193.18134,323.11514 L 190.11102,323.11514 L 179.38837,310.47061 L 179.38837,321.69717 L 181.61493,321.69717 L 181.61493,323.11514 L 175.49774,323.11514 z"
             transform="matrix(0.9807853,0.1950903,-0.1950903,0.9807853,0,0)"
             id="text3859"
             style="font-size:24px;font-style:normal;font-variant:normal;font-weight:bold;font-stretch:normal;text-align:start;line-height:125%;writing-mode:lr-tb;text-anchor:start;fill:#000000;fill-opacity:1;stroke:none;stroke-width:1px;stroke-linecap:butt;stroke-linejoin:miter;stroke-opacity:1;font-family:DejaVu Serif;-inkscape-font-specification:DejaVu Serif Bold" />
          <path
             d="M 191.22664,119.73893 L 191.22664,118.32096 L 193.46492,118.32096 L 193.46492,103.6608 L 191.22664,103.6608 L 191.22664,102.24284 L 196.6993,102.24284 L 207.25789,114.62955 L 207.25789,103.6608 L 205.03133,103.6608 L 205.03133,102.24284 L 211.14851,102.24284 L 211.14851,103.6608 L 208.91023,103.6608 L 208.91023,119.73893 L 205.83992,119.73893 L 195.11726,107.0944 L 195.11726,118.32096 L 197.34383,118.32096 L 197.34383,119.73893 L 191.22664,119.73893 z M 232.55867,119.73893 L 229.53523,119.73893 L 225.5743,107.00065 L 221.61336,119.73893 L 218.58992,119.73893 L 213.59773,103.6608 L 211.89851,103.6608 L 211.89851,102.24284 L 220.19539,102.24284 L 220.19539,103.6608 L 218.32039,103.6608 L 221.66023,114.4069 L 225.43367,102.24284 L 228.7618,102.24284 L 232.60555,114.60612 L 236.0157,103.6608 L 233.92976,103.6608 L 233.92976,102.24284 L 239.34383,102.24284 L 239.34383,103.6608 L 237.55086,103.6608 L 232.55867,119.73893 z M 239.90633,119.73893 L 239.90633,118.32096 L 247.05476,108.65299 L 241.67586,108.65299 L 241.67586,110.7858 L 240.28133,110.7858 L 240.28133,107.2819 L 251.88289,107.2819 L 251.88289,108.67643 L 244.72273,118.3444 L 250.48836,118.3444 L 250.48836,116.0944 L 251.88289,116.0944 L 251.88289,119.73893 L 239.90633,119.73893 z M 273.15242,119.73893 L 270.12898,119.73893 L 266.16805,107.00065 L 262.20711,119.73893 L 259.18367,119.73893 L 254.19148,103.6608 L 252.49226,103.6608 L 252.49226,102.24284 L 260.78914,102.24284 L 260.78914,103.6608 L 258.91414,103.6608 L 262.25398,114.4069 L 266.02742,102.24284 L 269.35555,102.24284 L 273.1993,114.60612 L 276.60945,103.6608 L 274.52351,103.6608 L 274.52351,102.24284 L 279.93758,102.24284 L 279.93758,103.6608 L 278.14461,103.6608 L 273.15242,119.73893 z"
             transform="matrix(0.8314696,0.5555702,-0.5555702,0.8314696,0,0)"
             id="text3863"
             style="font-size:24px;font-style:normal;font-variant:normal;font-weight:bold;font-stretch:normal;text-align:start;line-height:125%;writing-mode:lr-tb;text-anchor:start;fill:#000000;fill-opacity:1;stroke:none;stroke-width:1px;stroke-linecap:butt;stroke-linejoin:miter;stroke-opacity:1;font-family:DejaVu Serif;-inkscape-font-specification:DejaVu Serif Bold" />
          <path
             d="M 197.47798,-101.58138 L 197.47798,-102.99935 L 199.71626,-102.99935 L 199.71626,-117.65951 L 197.47798,-117.65951 L 197.47798,-119.07748 L 202.95064,-119.07748 L 213.50923,-106.69076 L 213.50923,-117.65951 L 211.28267,-117.65951 L 211.28267,-119.07748 L 217.39986,-119.07748 L 217.39986,-117.65951 L 215.16158,-117.65951 L 215.16158,-101.58138 L 212.09126,-101.58138 L 201.36861,-114.22591 L 201.36861,-102.99935 L 203.59517,-102.99935 L 203.59517,-101.58138 L 197.47798,-101.58138 z M 238.81001,-101.58138 L 235.78658,-101.58138 L 231.82564,-114.31966 L 227.8647,-101.58138 L 224.84126,-101.58138 L 219.84908,-117.65951 L 218.14986,-117.65951 L 218.14986,-119.07748 L 226.44673,-119.07748 L 226.44673,-117.65951 L 224.57173,-117.65951 L 227.91158,-106.91341 L 231.68501,-119.07748 L 235.01314,-119.07748 L 238.85689,-106.7142 L 242.26704,-117.65951 L 240.18111,-117.65951 L 240.18111,-119.07748 L 245.59517,-119.07748 L 245.59517,-117.65951 L 243.8022,-117.65951 L 238.81001,-101.58138 z M 246.15767,-101.58138 L 246.15767,-102.99935 L 253.30611,-112.66732 L 247.9272,-112.66732 L 247.9272,-110.53451 L 246.53267,-110.53451 L 246.53267,-114.03841 L 258.13423,-114.03841 L 258.13423,-112.64388 L 250.97408,-102.97591 L 256.7397,-102.97591 L 256.7397,-105.22591 L 258.13423,-105.22591 L 258.13423,-101.58138 L 246.15767,-101.58138 z M 260.00923,-101.58138 L 260.00923,-102.99935 L 262.24751,-102.99935 L 262.24751,-117.65951 L 260.00923,-117.65951 L 260.00923,-119.07748 L 265.48189,-119.07748 L 276.04048,-106.69076 L 276.04048,-117.65951 L 273.81392,-117.65951 L 273.81392,-119.07748 L 279.93111,-119.07748 L 279.93111,-117.65951 L 277.69283,-117.65951 L 277.69283,-101.58138 L 274.62251,-101.58138 L 263.89986,-114.22591 L 263.89986,-102.99935 L 266.12642,-102.99935 L 266.12642,-101.58138 L 260.00923,-101.58138 z"
             transform="matrix(0.5555702,0.8314696,-0.8314696,0.5555702,0,0)"
             id="text3867"
             style="font-size:24px;font-style:normal;font-variant:normal;font-weight:bold;font-stretch:normal;text-align:start;line-height:125%;writing-mode:lr-tb;text-anchor:start;fill:#000000;fill-opacity:1;stroke:none;stroke-width:1px;stroke-linecap:butt;stroke-linejoin:miter;stroke-opacity:1;font-family:DejaVu Serif;-inkscape-font-specification:DejaVu Serif Bold" />
          <path
             d="M 133.63519,-305.5083 L 133.63519,-306.92627 L 135.87347,-306.92627 L 135.87347,-321.58643 L 133.63519,-321.58643 L 133.63519,-323.00439 L 139.10785,-323.00439 L 149.66644,-310.61768 L 149.66644,-321.58643 L 147.43988,-321.58643 L 147.43988,-323.00439 L 153.55707,-323.00439 L 153.55707,-321.58643 L 151.31879,-321.58643 L 151.31879,-305.5083 L 148.24847,-305.5083 L 137.52582,-318.15283 L 137.52582,-306.92627 L 139.75238,-306.92627 L 139.75238,-305.5083 L 133.63519,-305.5083 z M 155.36176,-305.5083 L 155.36176,-306.92627 L 162.51019,-316.59424 L 157.13129,-316.59424 L 157.13129,-314.46143 L 155.73676,-314.46143 L 155.73676,-317.96533 L 167.33832,-317.96533 L 167.33832,-316.5708 L 160.17816,-306.90283 L 165.94379,-306.90283 L 165.94379,-309.15283 L 167.33832,-309.15283 L 167.33832,-305.5083 L 155.36176,-305.5083 z M 188.60785,-305.5083 L 185.58441,-305.5083 L 181.62347,-318.24658 L 177.66254,-305.5083 L 174.6391,-305.5083 L 169.64691,-321.58643 L 167.94769,-321.58643 L 167.94769,-323.00439 L 176.24457,-323.00439 L 176.24457,-321.58643 L 174.36957,-321.58643 L 177.70941,-310.84033 L 181.48285,-323.00439 L 184.81097,-323.00439 L 188.65472,-310.64111 L 192.06488,-321.58643 L 189.97894,-321.58643 L 189.97894,-323.00439 L 195.39301,-323.00439 L 195.39301,-321.58643 L 193.60004,-321.58643 L 188.60785,-305.5083 z"
             transform="matrix(0.1950903,0.9807853,-0.9807853,0.1950903,0,0)"
             id="text3871"
             style="font-size:24px;font-style:normal;font-variant:normal;font-weight:bold;font-stretch:normal;text-align:start;line-height:125%;writing-mode:lr-tb;text-anchor:start;fill:#000000;fill-opacity:1;stroke:none;stroke-width:1px;stroke-linecap:butt;stroke-linejoin:miter;stroke-opacity:1;font-family:DejaVu Serif;-inkscape-font-specification:DejaVu Serif Bold" />
          <path
             d="M 598.7666,477.63593 C 600.25878,477.63593 601.36815,477.00702 602.09473,475.74921 C 602.82127,474.4914 603.18456,472.56953 603.18457,469.98358 C 603.18456,467.38984 602.82127,465.46406 602.09473,464.20624 C 601.36815,462.94844 600.25878,462.31954 598.7666,462.31952 C 597.28222,462.31954 596.1748,462.9543 595.44434,464.22382 C 594.71386,465.49336 594.34863,467.41328 594.34863,469.98358 C 594.34863,472.54609 594.71386,474.4621 595.44434,475.73163 C 596.1748,477.00116 597.28222,477.63593 598.7666,477.63593 L 598.7666,477.63593 z M 598.7666,479.05389 C 595.82128,479.05389 593.51269,478.24921 591.84082,476.63983 C 590.16894,475.03046 589.33301,472.81171 589.33301,469.98358 C 589.33301,467.15547 590.1709,464.93477 591.84668,463.32147 C 593.52246,461.70821 595.82909,460.90157 598.7666,460.90155 C 601.7119,460.90157 604.02049,461.70625 605.69238,463.31561 C 607.36424,464.925 608.20018,467.14766 608.2002,469.98358 C 608.20018,472.81171 607.36229,475.03046 605.68652,476.63983 C 604.01073,478.24921 601.70409,479.05389 598.7666,479.05389 L 598.7666,479.05389 z M 610.0752,478.71405 L 610.0752,477.29608 L 617.22363,467.62811 L 611.84473,467.62811 L 611.84473,469.76093 L 610.4502,469.76093 L 610.4502,466.25702 L 622.05176,466.25702 L 622.05176,467.65155 L 614.8916,477.31952 L 620.65723,477.31952 L 620.65723,475.06952 L 622.05176,475.06952 L 622.05176,478.71405 L 610.0752,478.71405 z M 623.92676,478.71405 L 623.92676,477.29608 L 626.16504,477.29608 L 626.16504,462.63593 L 623.92676,462.63593 L 623.92676,461.21796 L 629.39941,461.21796 L 639.95801,473.60468 L 639.95801,462.63593 L 637.73145,462.63593 L 637.73145,461.21796 L 643.84863,461.21796 L 643.84863,462.63593 L 641.61035,462.63593 L 641.61035,478.71405 L 638.54004,478.71405 L 627.81738,466.06952 L 627.81738,477.29608 L 630.04395,477.29608 L 630.04395,478.71405 L 623.92676,478.71405 z"
             transform="matrix(0.9807853,-0.1950903,0.1950903,0.9807853,0,0)"
             id="text3875"
             style="font-size:24px;font-style:normal;font-variant:normal;font-weight:bold;font-stretch:normal;text-align:start;line-height:125%;writing-mode:lr-tb;text-anchor:start;fill:#000000;fill-opacity:1;stroke:none;stroke-width:1px;stroke-linecap:butt;stroke-linejoin:miter;stroke-opacity:1;font-family:DejaVu Serif;-inkscape-font-specification:DejaVu Serif Bold" />
        </g>
      </g>
    </g>
  </g>
</svg>
